<svg width="26" height="26" viewBox="0 0 26 26" fill="none" xmlns="http://www.w3.org/2000/svg">
<path d="M19.8656 19.8657H16.9764V15.34C16.9764 14.261 16.9569 12.8716 15.4733 12.8716C13.9685 12.8716 13.7378 14.0481 13.7378 15.2604V19.8657H10.8485V10.5593H13.6224V11.8316H13.6614C14.2269 10.8664 15.2799 10.2879 16.3979 10.3285C19.3261 10.3285 19.8673 12.2541 19.8673 14.7615L19.8656 19.864V19.8657ZM7.58875 9.2869C7.14492 9.28477 6.71985 9.10762 6.40586 8.79393C6.09187 8.48025 5.91431 8.05535 5.91175 7.61152C5.91175 6.69177 6.669 5.93452 7.58875 5.93452C8.5085 5.93452 9.26413 6.69177 9.26575 7.61152C9.26575 8.53127 8.5085 9.2869 7.58875 9.2869ZM9.03337 19.8657H6.14088V10.5593H9.03337V19.8657ZM21.3037 3.25002H4.68813C4.31137 3.24784 3.94897 3.39442 3.67969 3.65793C3.4104 3.92143 3.25599 4.28056 3.25 4.65727V21.3428C3.25599 21.7195 3.4104 22.0786 3.67969 22.3421C3.94897 22.6056 4.31137 22.7522 4.68813 22.75H21.3054C21.683 22.7531 22.0466 22.607 22.3171 22.3435C22.5876 22.08 22.7432 21.7204 22.75 21.3428V4.65565C22.7432 4.27837 22.5875 3.91908 22.3169 3.65609C22.0463 3.3931 21.6827 3.24773 21.3054 3.25165L21.3037 3.25002Z" fill="#0A66C2"/>
</svg>
