<svg width="80" height="80" viewBox="0 0 80 80" fill="none" xmlns="http://www.w3.org/2000/svg">
<g clip-path="url(#clip0_26_7)">
<path d="M12.8737 18.2056C8.7073 18.2056 5.31793 21.5953 5.31793 25.7619C5.31793 29.9283 8.7075 33.3177 12.8737 33.3177C17.0405 33.3177 20.4302 29.9281 20.4302 25.7619C20.43 21.5953 17.0403 18.2056 12.8737 18.2056ZM19.1471 23.1731C18.5531 22.6117 17.7718 22.1347 16.8593 21.7763C16.5009 20.8638 16.0239 20.0827 15.4627 19.4885C17.1261 20.1778 18.4578 21.5095 19.1471 23.1731ZM17.5533 26.5166C17.5689 26.2682 17.5771 26.0168 17.5771 25.7619C17.5771 25.5066 17.5691 25.254 17.5533 25.005C18.7586 25.2214 19.4811 25.4919 19.6594 25.6914C19.6598 25.715 19.6612 25.7384 19.6612 25.7619C19.6612 25.7804 19.66 25.7986 19.6598 25.8168C19.4821 26.024 18.7596 26.2984 17.5533 26.5166ZM12.9288 32.5474C12.9104 32.5476 12.8921 32.5489 12.8737 32.5489C12.8552 32.5489 12.8372 32.5476 12.8188 32.5474C12.6116 32.3698 12.337 31.6475 12.1188 30.4412C12.3671 30.4568 12.6188 30.4649 12.8737 30.4649C13.1286 30.4649 13.3806 30.4568 13.6292 30.4412C13.4105 31.6479 13.136 32.37 12.9288 32.5474ZM12.8737 29.7705C12.5796 29.7705 12.2905 29.7584 12.0063 29.7371C11.9178 29.1068 11.8461 28.3778 11.8022 27.5567C12.1792 27.5688 12.5405 27.5743 12.8737 27.5743C13.2071 27.5743 13.5687 27.5688 13.9457 27.5567C13.9021 28.3778 13.8302 29.107 13.7417 29.7371C13.457 29.7584 13.1679 29.7705 12.8737 29.7705ZM12.8737 26.8799C12.4919 26.8799 12.1251 26.8737 11.7729 26.8627C11.7618 26.5102 11.7557 26.1437 11.7557 25.7619C11.7557 25.38 11.7618 25.0132 11.7729 24.6605C12.1254 24.6495 12.4919 24.6433 12.8737 24.6433C13.2556 24.6433 13.6224 24.6495 13.975 24.6605C13.9863 25.0132 13.9925 25.38 13.9925 25.7619C13.9925 26.1437 13.9863 26.5102 13.9753 26.8627C13.6224 26.8737 13.2556 26.8799 12.8737 26.8799ZM6.08838 25.8322C6.08818 25.8086 6.08654 25.7855 6.08654 25.7619C6.08654 25.7435 6.08777 25.7252 6.08797 25.7068C6.26563 25.4996 6.98813 25.2251 8.19421 25.0066C8.17864 25.2552 8.17044 25.5068 8.17044 25.7619C8.17044 26.0172 8.17864 26.2695 8.19421 26.5184C6.98915 26.3021 6.26665 26.0316 6.08838 25.8322ZM8.86487 25.7619C8.86487 25.4677 8.87717 25.1786 8.89848 24.8941C9.52877 24.8056 10.2578 24.7337 11.0791 24.6901C11.067 25.0671 11.0615 25.4285 11.0615 25.7619C11.0615 26.0951 11.067 26.4566 11.0791 26.8334C10.258 26.7897 9.52898 26.718 8.89868 26.6301C8.87717 26.3457 8.86487 26.0564 8.86487 25.7619ZM12.8032 18.9762C12.8268 18.976 12.8501 18.9744 12.8737 18.9744C12.8921 18.9744 12.9104 18.9756 12.929 18.9758C13.1362 19.1535 13.4107 19.876 13.629 21.0823C13.3806 21.0667 13.1288 21.0585 12.8737 21.0585C12.6184 21.0585 12.3661 21.0667 12.1174 21.0823C12.3335 19.877 12.6038 19.1545 12.8032 18.9762ZM12.8737 21.7529C13.1679 21.7529 13.4572 21.7652 13.7417 21.7865C13.8302 22.4166 13.9019 23.1457 13.9455 23.9667C13.5685 23.9546 13.2071 23.9491 12.8737 23.9491C12.5403 23.9491 12.179 23.9546 11.8022 23.9667C11.8459 23.1457 11.9176 22.4168 12.0055 21.7865C12.2899 21.765 12.5792 21.7529 12.8737 21.7529ZM14.6689 24.6898C15.4899 24.7335 16.219 24.8052 16.8491 24.8931C16.8704 25.1779 16.8827 25.4675 16.8827 25.7619C16.8827 26.056 16.8704 26.3451 16.8491 26.6293C16.219 26.7178 15.4899 26.7895 14.6689 26.8334C14.681 26.4566 14.6865 26.0951 14.6865 25.7619C14.6867 25.4285 14.681 25.0671 14.6689 24.6898ZM17.4855 24.2858C17.4136 23.7112 17.3001 23.1608 17.1511 22.6412C18.3076 23.1893 19.1535 23.954 19.51 24.8296C18.9895 24.5956 18.2789 24.4177 17.4855 24.2858ZM16.7731 24.1809C16.0751 24.0915 15.3426 24.0319 14.64 23.9956C14.6037 23.293 14.5441 22.5607 14.4547 21.8625C15.1227 21.956 15.7528 22.107 16.3288 22.3066C16.5284 22.883 16.6796 23.5129 16.7731 24.1809ZM14.35 21.1501C14.2179 20.3567 14.0402 19.6463 13.8062 19.1256C14.6818 19.4821 15.4465 20.3282 15.9946 21.4845C15.4748 21.3355 14.9244 21.2218 14.35 21.1501ZM11.9416 19.1254C11.7075 19.6461 11.5299 20.3567 11.3979 21.1501C10.8232 21.222 10.2728 21.3355 9.75335 21.4845C10.3013 20.3278 11.0658 19.4819 11.9416 19.1254ZM11.293 21.8625C11.2037 22.5607 11.1441 23.293 11.1078 23.9956C10.4052 24.0321 9.67262 24.0915 8.9745 24.1809C9.06794 23.5129 9.21895 22.883 9.41853 22.3068C9.99494 22.107 10.625 21.956 11.293 21.8625ZM8.26204 24.2858C7.46884 24.4179 6.75822 24.5956 6.23776 24.8294C6.5943 23.954 7.44015 23.1893 8.59644 22.6412C8.44748 23.1608 8.33375 23.7112 8.26204 24.2858ZM8.26204 27.2377C8.33375 27.8122 8.44748 28.3626 8.59624 28.8822C7.43974 28.3341 6.59409 27.5694 6.23755 26.694C6.75822 26.9278 7.46864 27.1057 8.26204 27.2377ZM8.9745 27.3424C9.67241 27.4319 10.405 27.4913 11.1076 27.5276C11.1441 28.2302 11.2035 28.9628 11.2928 29.6609C10.6248 29.5673 9.99473 29.4164 9.41853 29.2167C9.21895 28.6405 9.06794 28.0104 8.9745 27.3424ZM11.3979 30.3734C11.5301 31.1668 11.7078 31.8772 11.9416 32.3978C11.0658 32.0413 10.3013 31.1954 9.75314 30.0392C10.2726 30.1881 10.8232 30.3016 11.3979 30.3734ZM13.806 32.3978C14.04 31.8772 14.2179 31.1668 14.3498 30.3736C14.9244 30.3016 15.4748 30.1881 15.9942 30.0392C15.4463 31.1954 14.6816 32.0413 13.806 32.3978ZM14.4547 29.6609C14.5441 28.9628 14.6037 28.2302 14.64 27.5276C15.3426 27.4911 16.0749 27.4317 16.7731 27.3424C16.6796 28.0104 16.5286 28.6407 16.329 29.2169C15.7526 29.4164 15.1227 29.5673 14.4547 29.6609ZM17.4855 27.2377C18.2789 27.1055 18.9895 26.9278 19.5102 26.694C19.1537 27.5694 18.3078 28.3341 17.1511 28.8822C17.3003 28.3626 17.4138 27.8122 17.4855 27.2377ZM10.2849 19.4887C9.72364 20.0827 9.24661 20.864 8.88823 21.7765C7.97599 22.1349 7.19488 22.6119 6.60065 23.1731C7.28996 21.5095 8.62144 20.1778 10.2849 19.4887ZM6.60065 28.3505C7.19468 28.912 7.97599 29.3888 8.88823 29.7472C9.24661 30.6594 9.72343 31.4405 10.2847 32.0345C8.62144 31.3456 7.28975 30.0139 6.60065 28.3505ZM15.4627 32.0345C16.0241 31.4405 16.5009 30.6594 16.8593 29.7472C17.7718 29.3888 18.5531 28.9118 19.1471 28.3505C18.4578 30.0139 17.1261 31.3456 15.4627 32.0345Z" fill="#F9F9F9"/>
<path d="M77.3737 66.2961H76.8002V39.4027C76.8002 38.5859 76.1381 37.9239 75.3214 37.9239H65.8182V24.4135C65.8182 20.459 62.6009 17.2418 58.6464 17.2418H25.7478V9.90162C25.7478 9.10084 25.0984 8.4519 24.2979 8.4519H1.44992C0.64935 8.4517 0 9.10084 0 9.90162V41.6222C0 42.4232 0.64935 43.072 1.44992 43.072H14.1816V50.6687C14.1816 54.6232 17.3989 57.8404 21.3534 57.8404H31.9655V66.2963H31.392C29.9414 66.2963 28.7657 67.4721 28.7657 68.9224C28.7657 70.3727 29.9416 71.5485 31.392 71.5485H77.3737C78.8242 71.5485 80 70.3727 80 68.9224C80 67.4721 78.8242 66.2961 77.3737 66.2961ZM2.57466 11.0266H23.1729V37.9522H2.57466V11.0266ZM31.9655 39.4027V53.7421H21.3534C19.6586 53.7421 18.2798 52.3633 18.2798 50.6685V43.0718H24.2979C25.0984 43.0718 25.7478 42.423 25.7478 41.622V21.3401H58.6464C60.3412 21.3401 61.72 22.719 61.72 24.4137V37.9241H33.4443C32.6275 37.9241 31.9655 38.5859 31.9655 39.4027ZM55.7691 69.6847H52.9965C52.5755 69.6847 52.2343 69.3431 52.2343 68.922C52.2343 68.5009 52.5755 68.1595 52.9965 68.1595H55.7691C56.1902 68.1595 56.5314 68.5009 56.5314 68.922C56.5314 69.3433 56.1902 69.6847 55.7691 69.6847ZM73.9352 67.0004H34.8301V40.7887H73.9352V67.0004Z" fill="#F9F9F9"/>
<path d="M54.3826 62.9885C59.7919 62.9885 64.1929 58.5877 64.1929 53.1785C64.1929 47.7692 59.7919 43.3684 54.3826 43.3684C48.9734 43.3684 44.5726 47.7692 44.5726 53.1785C44.5726 58.5877 48.9734 62.9885 54.3826 62.9885ZM46.2385 56.5396C47.0098 57.2685 48.0239 57.8877 49.2084 58.3528C49.6736 59.5374 50.2928 60.5515 51.0217 61.3228C48.8619 60.4281 47.1332 58.6993 46.2385 56.5396ZM48.3073 52.1983C48.287 52.5208 48.2765 52.8476 48.2765 53.1785C48.2765 53.5093 48.2872 53.8361 48.3073 54.1584C46.741 53.8748 45.8033 53.5187 45.5728 53.2496C45.5726 53.2259 45.5709 53.2023 45.5709 53.1785C45.5709 53.1546 45.5726 53.131 45.5728 53.1072C45.8033 52.8382 46.7408 52.4819 48.3073 52.1983ZM54.3114 44.3684C54.3352 44.3682 54.3586 44.3665 54.3826 44.3665C54.4065 44.3665 54.4301 44.3682 54.4539 44.3684C54.7229 44.5989 55.0794 45.5365 55.363 47.103C55.0405 47.0828 54.7135 47.0723 54.3826 47.0723C54.0518 47.0723 53.7248 47.083 53.4025 47.103C53.6859 45.5365 54.0424 44.5991 54.3114 44.3684ZM54.3826 47.9737C54.7645 47.9737 55.1401 47.9897 55.5093 48.0171C55.6243 48.8353 55.7175 49.782 55.7743 50.8479C55.2846 50.8324 54.8153 50.825 54.3826 50.825C53.9498 50.825 53.4808 50.8324 52.9912 50.8479C53.048 49.7818 53.1412 48.8353 53.2562 48.0171C53.6254 47.9897 54.0008 47.9737 54.3826 47.9737ZM54.3826 51.7266C54.8784 51.7266 55.3548 51.7346 55.8124 51.7489C55.8267 52.2065 55.8347 52.6829 55.8347 53.1785C55.8347 53.674 55.8267 54.1502 55.8124 54.6078C55.3546 54.6221 54.8782 54.6301 54.3826 54.6301C53.8869 54.6301 53.4105 54.6221 52.9529 54.6078C52.9386 54.1502 52.9306 53.6742 52.9306 53.1785C52.9306 52.6829 52.9386 52.2067 52.9529 51.7489C53.4107 51.7346 53.8869 51.7266 54.3826 51.7266ZM63.1929 53.1072C63.1931 53.131 63.1948 53.1546 63.1948 53.1785C63.1948 53.2023 63.1931 53.2259 63.1929 53.2496C62.9622 53.5187 62.0246 53.8748 60.4583 54.1584C60.4785 53.8361 60.489 53.5093 60.489 53.1785C60.489 52.8478 60.4783 52.5208 60.4583 52.1983C62.0248 52.4819 62.9624 52.8382 63.1929 53.1072ZM59.5878 53.1785C59.5878 53.5603 59.5718 53.9355 59.5444 54.3047C58.7262 54.4195 57.7797 54.5129 56.7136 54.5696C56.7292 54.0803 56.7365 53.6113 56.7365 53.1787C56.7365 52.746 56.7292 52.2769 56.7136 51.7872C57.7797 51.844 58.7262 51.9372 59.5444 52.0522C59.5718 52.4212 59.5878 52.7968 59.5878 53.1785ZM54.4541 61.9885C54.4301 61.9887 54.4065 61.9904 54.3828 61.9904C54.359 61.9904 54.3354 61.9887 54.3117 61.9885C54.0426 61.7578 53.6863 60.8203 53.4027 59.254C53.7252 59.2743 54.052 59.2848 54.3828 59.2848C54.7137 59.2848 55.0407 59.2741 55.3632 59.254C55.0796 60.8205 54.7231 61.758 54.4541 61.9885ZM54.3826 58.3834C54.0008 58.3834 53.6254 58.3674 53.2562 58.3399C53.1412 57.5215 53.048 56.5749 52.9912 55.5087C53.4808 55.5243 53.95 55.5317 54.3826 55.5317C54.8153 55.5317 55.2848 55.5243 55.7743 55.5087C55.7175 56.5751 55.6243 57.5217 55.5093 58.3399C55.1401 58.3674 54.7645 58.3834 54.3826 58.3834ZM52.0521 54.5694C50.986 54.5127 50.0395 54.4195 49.2214 54.3045C49.1937 53.9355 49.1779 53.5601 49.1779 53.1783C49.1779 52.7966 49.1939 52.4212 49.2214 52.0518C50.0395 51.9368 50.986 51.8436 52.0521 51.7868C52.0366 52.2763 52.0292 52.7456 52.0292 53.1783C52.0294 53.6111 52.0366 54.0801 52.0521 54.5694ZM48.3952 55.0944C48.4884 55.8405 48.6359 56.5552 48.8294 57.23C47.3278 56.5183 46.2295 55.5253 45.7668 54.3885C46.4428 54.6924 47.3653 54.9231 48.3952 55.0944ZM49.3203 55.2305C50.2266 55.3465 51.1776 55.4237 52.0899 55.471C52.137 56.3835 52.2144 57.3347 52.3306 58.241C51.4634 58.1197 50.6453 57.9236 49.8971 57.6644C49.6377 56.916 49.4416 56.0978 49.3203 55.2305ZM52.4665 59.1661C52.638 60.196 52.8685 61.1183 53.1724 61.7943C52.0358 61.3314 51.043 60.2333 50.3313 58.7319C51.0059 58.9252 51.7204 59.0727 52.4665 59.1661ZM55.5931 61.7943C55.897 61.1183 56.1275 60.1958 56.299 59.1659C57.0451 59.0727 57.7598 58.9252 58.4342 58.7317C57.7227 60.2333 56.7298 61.3314 55.5931 61.7943ZM56.4351 58.2408C56.5511 57.3345 56.6285 56.3833 56.6759 55.471C57.5879 55.4239 58.5391 55.3465 59.4454 55.2305C59.3239 56.0978 59.1278 56.9162 58.8688 57.6644C58.1205 57.9234 57.3025 58.1195 56.4351 58.2408ZM60.3706 55.0944C61.4004 54.9229 62.3229 54.6924 62.9989 54.3885C62.5362 55.5253 61.4379 56.5183 59.9364 57.23C60.1296 56.5552 60.2771 55.8405 60.3706 55.0944ZM60.3706 51.2622C60.2771 50.5162 60.1298 49.8017 59.9364 49.1271C61.4379 49.8388 62.5362 50.8315 62.9987 51.9684C62.3227 51.6645 61.4002 51.4338 60.3706 51.2622ZM59.4452 51.1262C58.5391 51.0102 57.5879 50.933 56.6757 50.8856C56.6285 49.9734 56.5511 49.0224 56.4351 48.1161C57.3023 48.2374 58.1205 48.4335 58.8686 48.6927C59.1278 49.441 59.3239 50.259 59.4452 51.1262ZM56.299 47.1912C56.1275 46.1613 55.8968 45.2386 55.5931 44.5626C56.73 45.0255 57.7227 46.1238 58.4344 47.6251C57.7598 47.4319 57.0453 47.2844 56.299 47.1912ZM53.1724 44.5626C52.8687 45.2386 52.638 46.1611 52.4665 47.1912C51.7204 47.2844 51.0059 47.4319 50.3313 47.6253C51.0428 46.1238 52.0355 45.0255 53.1724 44.5626ZM52.3304 48.1161C52.2144 49.0224 52.137 49.9734 52.0899 50.8856C51.1776 50.9328 50.2266 51.01 49.3203 51.1262C49.4416 50.259 49.6377 49.4408 49.8969 48.6927C50.645 48.4337 51.463 48.2376 52.3304 48.1161ZM48.3952 51.2622C47.3653 51.4338 46.4428 51.6645 45.7668 51.9681C46.2297 50.8313 47.328 49.8386 48.8294 49.1269C48.6359 49.8015 48.4886 50.5164 48.3952 51.2622ZM57.7441 61.3226C58.4729 60.5513 59.0919 59.5372 59.5573 58.3528C60.7418 57.8875 61.7559 57.2685 62.5272 56.5396C61.6326 58.6991 59.9036 60.4279 57.7441 61.3226ZM62.5272 49.8174C61.7559 49.0886 60.7418 48.4694 59.5573 48.004C59.0921 46.8195 58.4729 45.8054 57.7441 45.0341C59.9036 45.9289 61.6326 47.6579 62.5272 49.8174ZM51.0217 45.0341C50.2928 45.8054 49.6736 46.8195 49.2084 48.0042C48.0239 48.4694 47.0098 49.0886 46.2385 49.8174C47.1332 47.6575 48.8619 45.9287 51.0217 45.0341Z" fill="#F9F9F9"/>
</g>
<defs>
<clipPath id="clip0_26_7">
<rect width="80" height="80" fill="white"/>
</clipPath>
</defs>
</svg>
