<svg width="80" height="65" viewBox="0 0 80 65" fill="none" xmlns="http://www.w3.org/2000/svg">
<path d="M65.4375 2.75C63.5 0.8125 60.4375 0.8125 58.5625 2.75L57.125 4.1875L55.6875 2.75C53.75 0.8125 50.6875 0.8125 48.8125 2.75C46.9375 4.6875 46.875 7.75 48.8125 9.625L57.125 17.9375L65.4375 9.625C67.3125 7.75 67.3125 4.625 65.4375 2.75ZM65.625 22.875H50.1875C49.875 23.5625 49.4375 24.25 48.875 24.75C47.75 25.875 46.1875 26.5625 44.5625 26.5625C42.9375 26.5625 41.375 25.9375 40.25 24.75L29.375 13.875C28.875 13.375 28.875 12.625 29.375 12.125C29.875 11.625 30.625 11.625 31.0625 12.125L42 23.0625C43.4375 24.5 45.75 24.5 47.1875 23.0625C48.625 21.625 48.625 19.3125 47.1875 17.875L33.625 4.25C31.375 2 28.4375 0.875 25.5 0.875H0.9375V15.5H18.1875C19.75 15.5 21.3125 16.125 22.5 17.3125L31.9375 26.75C34.25 29.0625 37.5 30.1875 40.5 30.125H65.625C67.625 30.125 69.3125 28.5 69.3125 26.4375C69.3125 24.5 67.6875 22.875 65.625 22.875ZM14.5625 36.9375C16.5 35 19.5625 35 21.4375 36.9375L22.875 38.375L24.3125 36.9375C26.25 35 29.3125 35 31.1875 36.9375C33.125 38.875 33.125 41.9375 31.1875 43.8125L22.9375 52.125L14.5625 43.8125C12.6875 41.9375 12.6875 38.8125 14.5625 36.9375ZM14.375 57.0625H29.8125C30.125 57.75 30.5625 58.4375 31.125 58.9375C32.25 60.0625 33.8125 60.75 35.4375 60.75C37.0625 60.75 38.625 60.125 39.75 58.9375L50.625 48.0625C51.125 47.5625 51.125 46.8125 50.625 46.3125C50.125 45.8125 49.375 45.8125 48.9375 46.3125L38 57.25C36.5625 58.6875 34.25 58.6875 32.8125 57.25C31.375 55.8125 31.375 53.5 32.8125 52.0625L46.375 38.5C48.625 36.25 51.5625 35.125 54.5 35.125H79.0625V49.75H61.8125C60.25 49.75 58.6875 50.375 57.5 51.5625L48.0625 61C45.75 63.3125 42.5 64.4375 39.5 64.375H14.375C12.375 64.375 10.6875 62.75 10.6875 60.6875C10.6875 58.6875 12.3125 57.0625 14.375 57.0625Z" fill="#F9F9F9"/>
</svg>
