<svg width="80" height="80" viewBox="0 0 80 80" fill="none" xmlns="http://www.w3.org/2000/svg">
<path d="M26.6667 13.3334H24.0007C20.267 13.3334 18.3987 13.3334 16.9727 14.06C15.7182 14.6992 14.6991 15.7183 14.06 16.9727C13.3333 18.3988 13.3333 20.267 13.3333 24.0007V26.6667M26.6667 13.3334H53.3333M26.6667 13.3334V6.66675M13.3333 26.6667V56.0007C13.3333 59.7344 13.3333 61.6004 14.06 63.0264C14.6991 64.2807 15.7182 65.3017 16.9727 65.9407C18.3973 66.6667 20.2633 66.6667 23.9897 66.6667H56.0103C59.7367 66.6667 61.6 66.6667 63.0247 65.9407C64.279 65.3017 65.3017 64.2807 65.9407 63.0264C66.6667 61.6017 66.6667 59.7384 66.6667 56.0121V26.6667M13.3333 26.6667H66.6667M53.3333 13.3334H56.0007C59.7343 13.3334 61.5987 13.3334 63.0247 14.06C64.279 14.6992 65.3017 15.7183 65.9407 16.9727C66.6667 18.3974 66.6667 20.2634 66.6667 23.9898V26.6667M53.3333 13.3334V6.66675M53.3333 53.3334H53.34V53.3401H53.3333V53.3334ZM40 53.3334H40.0067V53.3401H40V53.3334ZM26.6667 53.3334H26.6733L26.6732 53.3401H26.6667V53.3334ZM53.34 40.0001V40.0067H53.3333V40.0001H53.34ZM40 40.0001H40.0067V40.0067H40V40.0001ZM26.6667 40.0001H26.6733L26.6732 40.0067H26.6667V40.0001Z" stroke="#F9F9F9" stroke-width="5" stroke-linecap="round" stroke-linejoin="round"/>
</svg>
