<svg width="20" height="20" viewBox="0 0 20 20" fill="none" xmlns="http://www.w3.org/2000/svg">
<g id="Frame">
<g id="SVGRepo_bgCarrier">
<path id="Vector" d="M9.99999 18.5258C12.1507 18.899 14.1488 17.2246 15.5547 15.5547C16.8462 14.0207 17.0154 11.9987 17.1779 10C17.3623 7.73123 17.9521 5.2458 16.5376 3.46243C15.0294 1.56103 12.3325 0.28033 9.99999 0.950439C7.82656 1.57483 7.77953 4.60388 6.38043 6.38044C5.29986 7.75253 2.9409 8.25482 2.87313 10C2.80503 11.7533 4.96259 12.5658 6.08792 13.9121C7.43227 15.5203 7.93472 18.1675 9.99999 18.5258Z" fill="#B5D8E3"/>
</g>
<g id="SVGRepo_iconCarrier">
<path id="Vector_2" d="M17.6923 8.23718C17.6923 7.85256 17.3718 7.53205 16.9872 7.53205H12.4679C12.0833 7.53205 11.7628 7.85256 11.7628 8.23718V15.8333C11.7628 16.2179 12.0833 16.5385 12.4679 16.5385H16.9872C17.3718 16.5385 17.6923 16.2179 17.6923 15.8333V8.23718Z" fill="black"/>
<g id="Group">
<path id="Vector_3" d="M10.5449 11.0897H4.35896C4.1346 11.0897 3.94229 10.8654 3.94229 10.6731V5.48077C3.94229 5.25641 4.16665 5.0641 4.35896 5.0641H13.3654C13.5897 5.0641 13.782 5.28846 13.782 5.48077V6.28205H15.4167V4.55128C15.4167 3.97436 14.9038 3.46154 14.3269 3.46154H3.39742C2.8205 3.46154 2.30768 3.97436 2.30768 4.55128V11.6667C2.30768 12.2436 2.8205 12.7564 3.39742 12.7564H10.5449V11.0897Z" fill="black"/>
<path id="Vector_4" d="M10.5449 15.8333V14.8718H9.93589C9.77564 14.8718 9.64743 14.7436 9.64743 14.5833V14.0385C9.64743 13.8782 9.51923 13.75 9.35897 13.75H8.26923C8.10897 13.75 7.98076 13.8782 7.98076 14.0385V14.5833C7.98076 14.7436 7.85256 14.8718 7.6923 14.8718H6.85897C6.28205 14.8718 5.76923 15.3846 5.76923 15.9615V16.0897C5.76923 16.3141 5.99359 16.5064 6.18589 16.5064H10.7051C10.5769 16.3141 10.5449 16.0897 10.5449 15.8333Z" fill="black"/>
</g>
<path id="Vector_5" d="M14.7436 16.2179C15.0268 16.2179 15.2564 15.9883 15.2564 15.7051C15.2564 15.4219 15.0268 15.1923 14.7436 15.1923C14.4603 15.1923 14.2307 15.4219 14.2307 15.7051C14.2307 15.9883 14.4603 16.2179 14.7436 16.2179Z" fill="black"/>
<path id="Vector_6" d="M16.6346 14.5513C16.6346 14.6795 16.5064 14.8397 16.3461 14.8397H13.0769C12.9487 14.8397 12.7885 14.7115 12.7885 14.5513V9.19872C12.7885 9.07051 12.9167 8.91026 13.0769 8.91026H16.3461C16.4743 8.91026 16.6346 9.03846 16.6346 9.19872V14.5513Z" fill="black"/>
</g>
</g>
</svg>
