<svg width="50" height="50" viewBox="0 0 100 100" fill="none" xmlns="http://www.w3.org/2000/svg">
<g clip-path="url(#clip0_172_69)">
<path fill-rule="evenodd" clip-rule="evenodd" d="M79.1911 49.9918C79.1911 58.0648 76.3509 64.9577 70.6624 70.6461C64.9658 76.3428 58.0811 79.1911 50.0081 79.1911C41.9678 79.1911 35.083 76.3509 29.3783 70.6461C23.6816 64.9577 20.8171 58.0648 20.8171 49.9918C20.8171 41.9433 23.6735 35.083 29.3783 29.3701C35.0993 23.6735 41.9759 20.8089 50.0081 20.8089C58.0811 20.8089 64.9658 23.6653 70.6624 29.3701C76.3428 35.083 79.1911 41.9433 79.1911 49.9918ZM13.3219 44.6126C15.8854 42.8629 17.1712 40.5762 16.9515 35.3434V21.8913C16.9271 20.0114 13.5173 19.7835 13.3464 21.8913L13.2161 32.8043C13.208 34.847 10.14 34.9121 10.1481 32.8043L10.2783 21.5169C10.2376 19.4987 6.98242 19.2952 6.94173 21.5169C6.94173 24.65 6.81152 29.6712 6.81152 32.8043C6.97428 34.7819 4.12598 35.0423 4.19922 32.8043L4.32943 21.5901C4.25619 20.0683 2.57975 19.5231 1.44043 20.2392C0.227865 21.0123 0.472005 22.5667 0.423177 23.8769L0 36.7513C0.0651042 40.4948 1.0498 43.5384 3.97949 44.8323C4.42708 45.0276 5.04557 45.1823 5.76172 45.2881L4.7526 76.6846C4.69564 78.5482 6.21745 80.07 7.99967 80.07H8.40658C10.4167 80.07 12.1175 78.3528 12.0605 76.2614L11.1735 45.2799C12.1094 45.1334 12.8825 44.9137 13.3219 44.6126ZM86.8652 75.7405L86.8164 47.5423C76.9287 41.8294 80.0781 19.8161 89.974 19.9381C102.002 20.0765 103.426 44.7428 93.0827 47.4528L93.8477 75.8545C93.9941 81.2256 86.8734 81.722 86.8652 75.7405ZM67.0003 49.9674C67.0003 54.6712 65.3483 58.6833 62.0199 62.0117C58.6995 65.3239 54.6875 66.9922 49.9837 66.9922C45.3125 66.9922 41.3005 65.3239 37.9801 62.0117C34.6598 58.6833 32.9997 54.6712 32.9997 49.9674C32.9997 45.2962 34.6598 41.2842 37.9801 37.972C41.3086 34.6598 45.3125 32.9915 49.9837 32.9915C59.432 32.9997 67.0003 40.511 67.0003 49.9674ZM70.9798 49.9674C70.9798 44.1894 68.9453 39.2497 64.8519 35.1562C60.7585 31.0628 55.8024 29.0283 49.9837 29.0283C44.1813 29.0283 39.2415 31.0628 35.1725 35.1562C31.0791 39.2497 29.0202 44.1894 29.0202 49.9674C29.0202 55.7617 31.0791 60.7015 35.1725 64.8112C39.2415 68.9127 44.1813 70.9717 49.9837 70.9717C55.7943 70.9717 60.7503 68.9127 64.8519 64.8112C68.9372 60.6933 70.9798 55.7536 70.9798 49.9674Z" fill="#75BF74"/>
</g>
<defs>
<clipPath id="clip0_172_69">
<rect width="100" height="100" fill="white"/>
</clipPath>
</defs>
</svg>
