<svg width="50" height="50" viewBox="0 0 100 100" fill="none" xmlns="http://www.w3.org/2000/svg">
<g clip-path="url(#clip0_172_73)">
<path d="M76.25 40H52.5V48.75C52.5 54.9532 47.4531 60 41.25 60C35.0469 60 30 54.9532 30 48.75V29.75L19.8594 35.8438C16.8438 37.6407 15 40.9063 15 44.4063V51.7969L2.50002 59.0157C0.109399 60.3907 -0.718726 63.4532 0.671899 65.8438L13.1719 87.5C14.5469 89.8907 17.6094 90.7032 20 89.3282L36.1563 80H57.5C63.0156 80 67.5 75.5157 67.5 70H70C72.7656 70 75 67.7657 75 65V55H76.25C78.3281 55 80 53.3282 80 51.25V43.75C80 41.6719 78.3281 40 76.25 40ZM99.3282 34.1563L86.8282 12.5C85.4532 10.1094 82.3907 9.29691 80 10.6719L63.8438 20H47.875C46 20 44.1719 20.5313 42.5781 21.5157L37.3438 24.7813C35.875 25.6875 35 27.2969 35 29.0157V48.75C35 52.2032 37.7969 55 41.25 55C44.7031 55 47.5 52.2032 47.5 48.75V35H76.25C81.0781 35 85 38.9219 85 43.75V48.2032L97.5 40.9844C99.8907 39.5938 100.703 36.5469 99.3282 34.1563Z" fill="#5C9548"/>
</g>
<defs>
<clipPath id="clip0_172_73">
<rect width="100" height="100" fill="white"/>
</clipPath>
</defs>
</svg>
