<svg width="52" height="53" viewBox="0 0 112 113" fill="none" xmlns="http://www.w3.org/2000/svg">
<path d="M55.7804 29.2914C59.4675 29.2914 62.4565 26.2758 62.4565 22.5558C62.4565 18.8357 59.4675 15.8201 55.7804 15.8201C52.0933 15.8201 49.1043 18.8357 49.1043 22.5558C49.1043 26.2758 52.0933 29.2914 55.7804 29.2914Z" fill="#7EC2B6"/>
<path d="M64.2133 31.064H47.5231C42.8675 31.064 39.178 34.7863 39.178 39.4836V60.0451C39.178 61.6404 40.4957 63.0585 42.1647 63.0585C43.8337 63.0585 45.1514 61.7291 45.1514 60.0451V41.1675C45.1514 40.7244 45.5027 40.3698 45.942 40.3698C46.3812 40.3698 46.7326 40.7244 46.7326 41.1675V92.2169C46.7326 94.6985 48.5773 96.8255 50.8612 96.8255C53.1451 96.8255 54.9898 94.7871 54.9898 92.2169V63.1471C54.9898 62.704 55.3412 62.3495 55.7804 62.3495C56.2196 62.3495 56.571 62.704 56.571 63.1471V92.3055C56.571 94.7871 58.4157 96.9142 60.6996 96.9142C62.9835 96.9142 64.8282 94.8757 64.8282 92.3055V41.1675C64.8282 40.7244 65.1796 40.3698 65.6188 40.3698C66.058 40.3698 66.4094 40.7244 66.4094 41.1675V60.1338C66.4094 61.7291 67.7271 63.1471 69.3961 63.1471C71.0651 63.1471 72.3827 61.8177 72.3827 60.1338V39.4836C72.5584 34.7863 68.7812 31.064 64.2133 31.064Z" fill="#7EC2B6"/>
<path d="M93.0259 29.2914C96.713 29.2914 99.7019 26.2758 99.7019 22.5558C99.7019 18.8357 96.713 15.8201 93.0259 15.8201C89.3388 15.8201 86.3498 18.8357 86.3498 22.5558C86.3498 26.2758 89.3388 29.2914 93.0259 29.2914Z" fill="#7EC2B6"/>
<path d="M101.371 31.064H84.6808C80.0251 31.064 76.3357 34.7863 76.3357 39.4836V60.0451C76.3357 61.6404 77.6533 63.0585 79.3224 63.0585C80.9914 63.0585 82.309 61.7291 82.309 60.0451V41.1675C82.309 40.7244 82.6604 40.3698 83.0996 40.3698C83.5388 40.3698 83.8902 40.7244 83.8902 41.1675V92.2169C83.8902 94.6985 85.7349 96.8255 88.0188 96.8255C90.3027 96.8255 92.1475 94.7871 92.1475 92.2169V63.1471C92.1475 62.704 92.4988 62.3495 92.938 62.3495C93.3773 62.3495 93.7286 62.704 93.7286 63.1471V92.3055C93.7286 94.7871 95.5733 96.9142 97.8573 96.9142C100.141 96.9142 101.986 94.8757 101.986 92.3055V41.1675C101.986 40.7244 102.337 40.3698 102.776 40.3698C103.216 40.3698 103.567 40.7244 103.567 41.1675V60.1338C103.567 61.7291 104.885 63.1471 106.554 63.1471C108.223 63.1471 109.54 61.8177 109.54 60.1338V39.4836C109.716 34.7863 105.939 31.064 101.371 31.064Z" fill="#7EC2B6"/>
<path d="M18.6227 29.2914C22.3098 29.2914 25.2988 26.2758 25.2988 22.5558C25.2988 18.8357 22.3098 15.8201 18.6227 15.8201C14.9356 15.8201 11.9467 18.8357 11.9467 22.5558C11.9467 26.2758 14.9356 29.2914 18.6227 29.2914Z" fill="#7EC2B6"/>
<path d="M26.9679 31.064H10.2777C5.62197 31.064 1.93256 34.7863 1.93256 39.4836V60.0451C1.93256 61.6404 3.2502 63.0585 4.91922 63.0585C6.58824 63.0585 7.90589 61.7291 7.90589 60.0451V41.1675C7.90589 40.7244 8.25726 40.3698 8.69648 40.3698C9.13569 40.3698 9.48707 40.7244 9.48707 41.1675V92.2169C9.48707 94.6985 11.3318 96.8255 13.6157 96.8255C15.8996 96.8255 17.7443 94.7871 17.7443 92.2169V63.1471C17.7443 62.704 18.0957 62.3495 18.5349 62.3495C18.9741 62.3495 19.3255 62.704 19.3255 63.1471V92.3055C19.3255 94.7871 21.1702 96.9142 23.4541 96.9142C25.738 96.9142 27.5828 94.8757 27.5828 92.3055V41.1675C27.5828 40.7244 27.9341 40.3698 28.3733 40.3698C28.8126 40.3698 29.1639 40.7244 29.1639 41.1675V60.1338C29.1639 61.7291 30.4816 63.1471 32.1506 63.1471C33.8196 63.1471 35.1373 61.8177 35.1373 60.1338V39.4836C35.313 34.7863 31.5357 31.064 26.9679 31.064Z" fill="#7EC2B6"/>
</svg>
