<svg width="80" height="80" viewBox="0 0 80 80" fill="none" xmlns="http://www.w3.org/2000/svg">
<path d="M2.5 18.7747C2.69383 19.6821 2.9905 20.5644 3.38425 21.4045L5.91034 21.6357C6.21915 22.1367 6.56977 22.6108 6.95846 23.0528L6.40487 25.47C7.1054 26.099 7.87331 26.6485 8.69461 27.1087L10.866 25.85C11.4204 26.0756 11.9927 26.2544 12.577 26.3845L13.5851 28.75H16.4148L17.4229 26.3846C18.0071 26.2544 18.5794 26.0756 19.1338 25.8501L21.3052 27.1088L23.5949 25.4702L23.0413 23.0531C23.43 22.6111 23.7807 22.137 24.0895 21.6359L26.6157 21.4047C27.0095 20.5646 27.3061 19.6823 27.5 18.7749L25.5887 17.1275V15.3725L27.5 13.7252C27.3062 12.8178 27.0096 11.9356 26.6158 11.0954L24.0897 10.8643C23.7808 10.3632 23.4302 9.88912 23.0415 9.4471L23.5951 7.03C22.8946 6.40105 22.1267 5.85147 21.3054 5.39125L19.134 6.65C18.5796 6.42437 18.0073 6.24557 17.423 6.11549L16.4149 3.75H13.5852L12.5771 6.11541C11.9929 6.24558 11.4206 6.4244 10.8663 6.65L8.69478 5.39125C7.8735 5.85139 7.10561 6.40091 6.4051 7.0298L6.95875 9.44695C6.56996 9.88889 6.2193 10.363 5.91054 10.8641L3.38437 11.0953C2.99052 11.9354 2.69381 12.8177 2.5 13.7251L4.41125 15.3724V17.1275L2.5 18.7747ZM15 11.25C15.9889 11.25 16.9556 11.5432 17.7779 12.0927C18.6001 12.6421 19.241 13.423 19.6194 14.3366C19.9978 15.2502 20.0969 16.2555 19.9039 17.2255C19.711 18.1954 19.2348 19.0863 18.5355 19.7855C17.8363 20.4848 16.9454 20.961 15.9755 21.1539C15.0055 21.3469 14.0002 21.2478 13.0866 20.8694C12.173 20.491 11.3921 19.8501 10.8427 19.0279C10.2932 18.2056 10 17.2389 10 16.25C10 14.9239 10.5268 13.6521 11.4645 12.7145C12.4021 11.7768 13.6739 11.25 15 11.25Z" fill="#F9F9F9"/>
<path d="M16.25 67.5H6.25V77.5H16.25V67.5Z" fill="#F9F9F9"/>
<path d="M35 63.75H25V77.5H35V63.75Z" fill="#F9F9F9"/>
<path d="M53.75 58.75H43.75V77.5H53.75V58.75Z" fill="#F9F9F9"/>
<path d="M72.5 47.5H62.5V77.5H72.5V47.5Z" fill="#F9F9F9"/>
<path d="M46.0986 30.6543C46.0194 30.5081 45.9119 30.3791 45.7822 30.2749C45.6526 30.1708 45.5035 30.0935 45.3436 30.0476L36.5936 27.5476L35.9064 29.9524L42.032 31.7026L4.31396 56.4551L5.68604 58.5449L42.7851 34.1986L40.7288 40.8826L43.1177 41.6174L46.1945 31.6174C46.2435 31.4586 46.2603 31.2916 46.2438 31.1262C46.2274 30.9608 46.178 30.8003 46.0986 30.6543Z" fill="#F9F9F9"/>
<path d="M56.875 19.9188L55.8425 26.25L61.25 23.2612L66.6575 26.25L65.625 19.9188L70 15.435L63.9537 14.5113L61.25 8.75L58.5463 14.5113L52.5 15.435L56.875 19.9188Z" fill="#F9F9F9"/>
<path d="M63.6499 32.2727C62.8639 32.4119 62.0672 32.4818 61.2689 32.4817H61.25C60.4541 32.482 59.6596 32.4129 58.8757 32.2751L58.446 34.7565C59.382 34.8916 60.3249 34.9729 61.2701 35C62.2137 34.9999 63.1555 34.9168 64.0845 34.7516L63.6499 32.2727Z" fill="#F9F9F9"/>
<path d="M68.1311 30.6237L69.3848 32.8026C71.0254 31.8457 72.4862 30.6093 73.7012 29.1494L71.7871 27.5288C70.7579 28.7654 69.5206 29.8128 68.1311 30.6237Z" fill="#F9F9F9"/>
<path d="M71.7535 9.69211C72.7906 10.9255 73.6038 12.3309 74.1565 13.8446L76.5028 12.974C75.8495 11.1849 74.8878 9.52401 73.6615 8.06665L71.7535 9.69211Z" fill="#F9F9F9"/>
<path d="M58.3826 2.51465C56.5152 2.85018 54.7219 3.51376 53.0859 4.47465L54.3445 6.65109C55.7278 5.83852 57.2442 5.27735 58.8232 4.99359L58.3826 2.51465Z" fill="#F9F9F9"/>
<path d="M76.5253 24.2299C77.1758 22.4225 77.5055 20.5154 77.4994 18.5946L76.9476 18.5847L75 18.6314C75.0024 20.2465 74.7233 21.8498 74.1754 23.3691L76.5253 24.2299Z" fill="#F9F9F9"/>
<path d="M69.3298 4.4268C67.6883 3.47521 65.8908 2.82281 64.021 2.5L63.5974 4.98139C65.1781 5.25488 66.6978 5.80647 68.0859 6.61056L69.3298 4.4268Z" fill="#F9F9F9"/>
<path d="M45.9863 24.2593L48.3337 23.3937C47.783 21.8761 47.501 20.2741 47.5006 18.6597L45.0006 18.6647C45.0014 20.5727 45.335 22.4659 45.9863 24.2593Z" fill="#F9F9F9"/>
<path d="M50.7288 27.5486L48.8171 29.1717C50.0347 30.6299 51.4978 31.8641 53.1403 32.8187L54.3903 30.6374C52.999 29.8291 51.7599 28.7838 50.7288 27.5486Z" fill="#F9F9F9"/>
<path d="M45.9644 13.0648L48.3154 13.9206C48.8597 12.4033 49.6653 10.993 50.6958 9.75346L48.7769 8.1377C47.5593 9.60358 46.6075 11.2711 45.9644 13.0648Z" fill="#F9F9F9"/>
</svg>
