<svg xmlns="http://www.w3.org/2000/svg" width="137" height="80" viewBox="0 0 137 80" fill="none">
  <g clip-path="url(#clip0_19_2)">
    <path d="M112.003 64.6141C114.102 64.6927 116.104 64.6482 118.08 64.892C119.652 65.086 120.98 66.0116 121.677 67.8129C122.527 70.0128 121.873 71.7459 119.819 73.0963C120.748 74.895 121.679 76.6963 122.608 78.4976C123.047 79.3497 122.866 79.7666 121.994 79.7221C121.596 79.7011 121.185 79.6539 120.797 79.7299C119.245 80.0262 118.201 79.3524 117.712 77.5825C116.93 74.7612 115.207 74.0926 112.762 74.777C112.762 75.9674 112.742 77.2757 112.769 78.5789C112.785 79.3786 112.546 79.7483 111.823 79.7273C108.179 79.6251 108.849 80.3723 108.804 76.2977C108.766 72.8891 108.824 69.4779 108.782 66.0667C108.769 64.9523 109.088 64.4961 110.046 64.601C110.657 64.6665 111.278 64.6141 112.003 64.6141ZM117.04 70.9698C117.683 70.6027 118.058 69.9446 117.716 69.2183C117.48 68.7175 116.888 68.2088 116.413 68.1485C115.243 67.9965 114.048 68.0987 112.821 68.0987V71.2215C113.854 71.2215 114.827 71.2373 115.801 71.2137C116.158 71.2058 116.515 71.0983 117.042 70.9698H117.04Z" fill="#060707"/>
    <path d="M47.9661 72.4748C47.9661 70.2147 47.9951 68.083 47.9527 65.9539C47.9326 64.9628 48.234 64.5905 49.089 64.5983C52.4644 64.635 55.8399 64.635 59.2131 64.5983C60.0614 64.5878 60.432 64.9471 60.3516 65.9434C60.3248 66.2817 60.3204 66.6278 60.3516 66.966C60.4476 67.9938 60.0279 68.3032 59.2042 68.2901C56.8177 68.2534 54.429 68.277 51.9822 68.277V70.2409C53.7146 70.2409 55.409 70.2357 57.1057 70.2409C58.3223 70.2461 58.3156 70.3117 58.3648 72.2153C58.3938 73.3427 58.2308 73.9641 57.0699 73.8802C55.4112 73.7596 53.7392 73.8488 51.9979 73.8488V76.0749H54.996C56.1212 76.0749 57.2463 76.0749 58.3715 76.0749C60.403 76.0749 60.374 76.0749 60.3628 78.4556C60.3583 79.3891 60.0904 79.7404 59.2823 79.7326C55.8711 79.6985 52.46 79.6906 49.0488 79.7352C48.1536 79.7483 47.9304 79.3104 47.9527 78.356C47.9951 76.4393 47.9661 74.52 47.9661 72.4748Z" fill="#060707"/>
    <path d="M126.202 64.6141C129.425 64.6141 132.549 64.6508 135.669 64.5931C136.663 64.5747 137.027 64.9366 137 66.127C136.951 68.277 137 68.2796 135.138 68.2796C132.999 68.2796 130.859 68.2796 128.637 68.2796V70.2435C130.296 70.2435 131.986 70.2121 133.676 70.2671C134.091 70.2802 134.83 70.5346 134.855 70.7601C134.953 71.7014 134.868 72.6794 134.759 73.6285C134.745 73.7491 134.183 73.8409 133.872 73.8435C132.138 73.8645 130.403 73.854 128.613 73.854V76.0801C130.941 76.0801 133.216 76.0565 135.493 76.0985C135.96 76.1063 136.788 76.2741 136.821 76.5022C136.964 77.4357 136.897 78.4216 136.821 79.3812C136.81 79.5202 136.341 79.7063 136.085 79.7063C132.564 79.7273 129.044 79.709 125.523 79.7299C124.798 79.7352 124.588 79.3419 124.592 78.5527C124.608 74.3312 124.63 70.1124 124.583 65.8936C124.568 64.4489 125.333 64.6036 126.208 64.6167L126.202 64.6141Z" fill="#060707"/>
    <path d="M26.2757 64.9392C29.3989 66.418 30.8299 69.255 30.4861 73.1749C30.1758 76.7199 28.2827 79.1505 25.1327 79.6985C23.7241 79.9449 22.2261 79.9449 20.8219 79.6749C17.413 79.0168 15.5333 76.1299 15.5824 71.9845C15.627 68.0148 17.6541 65.107 21.0407 64.6455C22.7284 64.4148 24.4764 64.795 26.2757 64.9392ZM24.4273 68.201C22.1882 67.4616 20.4022 68.3059 19.9714 70.5057C19.7615 71.5807 19.8039 72.7869 19.9714 73.8855C20.1812 75.2489 21.0318 76.1194 22.206 76.3292C23.4495 76.5521 24.6639 76.4524 25.5815 75.1939C26.72 73.6338 26.749 69.297 24.4228 68.201H24.4273Z" fill="#060707"/>
    <path d="M65.4014 74.9343C66.3881 76.3685 68.9353 76.9218 70.2078 75.9988C70.4556 75.8179 70.7882 75.3695 70.7391 75.1572C70.661 74.8294 70.3194 74.4387 70.0315 74.3601C68.9063 74.0481 67.7521 73.8724 66.6203 73.5971C65.8412 73.4083 65.0554 73.209 64.312 72.8891C63.006 72.3254 62.0527 71.3395 61.9478 69.5775C61.8362 67.7212 62.5416 66.3525 63.9034 65.4898C65.6559 64.3755 67.5735 64.1579 69.5046 64.462C70.5271 64.6219 71.5741 64.9733 72.4938 65.5134C73.1658 65.9067 73.7819 66.6514 74.1816 67.4118C75.0031 68.9797 74.5767 69.7401 73.0229 69.7453C71.9536 69.748 70.9133 69.921 70.1431 68.5812C69.6497 67.7238 67.4374 67.6818 66.6538 68.3111C66.4171 68.5025 66.147 68.9168 66.1693 69.1973C66.1917 69.47 66.5377 69.8607 66.7944 69.9289C67.9932 70.2488 69.2189 70.4244 70.4154 70.7522C71.362 71.0091 72.3398 71.274 73.197 71.7774C75.2978 73.015 75.6148 76.0591 73.9181 77.9863C71.5339 80.7001 64.879 80.6686 62.5461 77.9155C62.247 77.5615 61.9902 77.121 61.8161 76.6648C61.2156 75.0864 61.5594 74.4571 63.0328 74.5095C63.8052 74.5358 64.5754 74.735 65.4014 74.9369V74.9343Z" fill="#060707"/>
    <path d="M4.84686 74.1057C4.21508 74.0323 3.92933 74.1949 3.95612 74.9264C4.00077 76.1168 3.9405 77.3151 3.97621 78.5055C4.00077 79.3576 3.7686 79.7509 2.98501 79.7273C-0.591345 79.6224 0.0649905 80.3382 0.0225743 76.358C-0.0153771 72.9049 0.0404338 69.4517 0.000249947 65.9985C-0.0131447 64.934 0.306093 64.5721 1.20576 64.5983C4.41377 64.6927 3.9271 64.0766 3.96728 67.8575C3.97621 68.6992 3.96728 69.5408 3.96728 70.4349H9.35191C9.35191 68.8486 9.37424 67.3226 9.34299 65.7992C9.32513 64.9156 9.63543 64.5879 10.3811 64.6036C13.8212 64.6823 13.2698 64.0661 13.2989 67.9309C13.3256 71.3841 13.2721 74.8373 13.3234 78.2905C13.3413 79.431 12.9997 79.7509 12.0599 79.7378C9.35192 79.6959 9.35191 79.7378 9.35191 76.5678V74.1031C7.82716 74.1031 6.39171 74.1031 4.84686 74.1031V74.1057Z" fill="#040505"/>
    <path d="M86.2635 74.8137C86.0826 74.4938 85.9063 74.1398 85.7232 74.1346C84.1672 74.09 82.609 74.1084 80.89 74.1084C80.89 75.6134 80.8565 77.0424 80.9012 78.4714C80.9324 79.4205 80.6266 79.7562 79.8229 79.7326C76.376 79.6303 76.981 80.3225 76.9431 76.3921C76.9096 72.9389 76.9587 69.4858 76.923 66.0352C76.9118 65.01 77.1685 64.5774 78.1017 64.6036C81.3543 64.7006 80.8476 64.108 80.89 67.8339C80.8989 68.6782 80.89 69.5225 80.89 70.4323H86.2657C86.2657 68.8827 86.288 67.3593 86.2568 65.8359C86.2389 64.9707 86.509 64.5931 87.2703 64.6114C90.735 64.6927 90.1836 64.0556 90.2126 67.9021C90.2394 71.3972 90.197 74.8923 90.2327 78.3875C90.2439 79.3707 89.9894 79.7378 89.1165 79.7404C86.2657 79.7483 86.2657 79.785 86.2657 76.476C86.2657 75.9647 86.2657 75.4534 86.2657 74.8163L86.2635 74.8137Z" fill="#040505"/>
    <path d="M103.263 79.4809C102.788 77.0948 101.388 76.8405 99.7228 77.0974C99.3321 77.1578 98.9236 77.1394 98.5285 77.1001C97.2761 76.9742 96.1666 77.0135 95.8629 78.9171C95.8094 79.2501 95.1843 79.6172 94.7891 79.6827C94.0435 79.8034 93.2711 79.6906 92.5098 79.7247C91.7195 79.7588 91.5343 79.4101 91.858 78.571C92.5031 76.906 93.1215 75.228 93.7511 73.5551C94.7177 70.9882 95.7111 68.4343 96.6421 65.849C96.9725 64.934 97.4346 64.5643 98.2918 64.5983C102.757 64.7714 101.471 63.6702 103.353 68.4868C104.636 71.7722 105.858 75.0916 107.092 78.4032C107.534 79.5857 107.458 79.7247 106.342 79.709C105.337 79.6932 104.333 79.6041 103.263 79.4809ZM100.902 73.2483C100.464 71.9216 100.029 70.5949 99.4773 68.9247C98.8544 70.663 98.3588 72.0422 97.8476 73.4686C98.9325 73.4686 99.897 73.4686 100.902 73.2457V73.2483Z" fill="#040505"/>
    <path d="M44.921 66.5937C47.1133 69.8188 46.1779 73.8855 42.9118 75.0444C41.5567 75.5269 40.0588 75.4692 38.6211 75.616C38.0518 75.6737 37.4736 75.6265 36.7526 75.6265C36.7526 76.6832 36.7302 77.6481 36.7592 78.613C36.7838 79.4389 36.4869 79.7483 35.7859 79.7299C32.2073 79.6303 32.8346 80.3514 32.7944 76.4C32.761 72.994 32.8257 69.5854 32.7677 66.1794C32.7476 64.9313 33.1137 64.5407 34.1585 64.5957C36.6543 64.7294 39.168 64.5905 41.646 64.892C42.7556 65.0284 43.7959 65.9592 44.9233 66.5963M38.9202 68.0882H36.8351V72.3385C38.1813 72.2362 39.4471 72.2231 40.6861 72.0134C41.4786 71.8796 41.8983 71.1455 41.9072 70.1701C41.9162 69.1344 41.4563 68.4658 40.6325 68.222C40.1503 68.0804 39.6302 68.1276 38.9202 68.0882Z" fill="#060707"/>
    <path d="M58.3782 23.6374C54.9268 18.9335 54.17 10.8971 56.8556 5.56389C57.7352 3.81764 59.7176 2.81341 61.2535 1.56271C61.8362 1.08813 62.5774 0.880993 63.3409 0.613548C63.0015 1.65711 62.5662 2.63774 62.0684 3.68392C61.8139 5.43542 61.4143 7.13185 61.4879 8.80207C61.5594 10.4461 62.1063 12.0612 62.4077 13.7839C62.0974 14.4263 61.7603 14.9428 61.5638 15.5275C60.7802 17.848 60.0614 20.2026 59.26 22.5152C59.1059 22.9557 58.6795 23.2651 58.3804 23.6374H58.3782Z" fill="#0C439A"/>
    <path d="M54.717 12.3601C54.7281 13.1363 54.7393 13.9097 54.6857 14.8458C54.6902 15.2339 54.7594 15.462 54.8286 15.6927C54.9402 16.3875 55.0541 17.0824 55.1143 17.9214C55.1411 18.2125 55.217 18.3593 55.2929 18.5061C55.4537 18.9597 55.6122 19.4133 55.726 20.0164C55.6635 20.5303 55.7238 20.9289 55.6166 21.254C54.7147 24.0097 53.7927 26.7549 52.8417 29.4871C52.7547 29.7388 52.4198 29.8751 52.201 30.0639C49.4819 22.0825 50.4151 14.6806 54.9112 7.78474C55.1925 7.75065 55.3175 7.75327 55.4447 7.7559C55.3287 8.37469 55.2148 8.9961 55.005 9.72764C54.9134 9.99771 54.9157 10.155 54.9179 10.3097C54.909 10.5064 54.9 10.703 54.7906 11.0203C54.6991 11.5473 54.708 11.9563 54.717 12.3628V12.3601Z" fill="#0C439A"/>
    <path d="M62.1286 3.62099C62.564 2.64036 62.9993 1.65711 63.4145 0.582085C63.7226 0.359215 64.0485 0.233358 64.6513 0C64.2316 0.891482 63.928 1.48668 63.6623 2.10285C62.1175 5.69237 62.2492 11.4267 65.6715 15.42C67.7588 17.8559 70.2949 19.3216 72.8957 20.7296C75.3893 22.0773 77.9477 23.2939 80.3408 24.8566C82.3054 26.1388 83.4015 28.3596 84.0377 30.9266C84.5021 32.7987 84.069 34.2381 82.9662 35.536C82.7362 35.8061 82.4951 36.0657 82.1982 36.2545C82.8099 33.5984 82.1692 31.3303 80.9012 29.1226C79.9368 28.0476 79.0036 27.0512 78.0303 25.9841C77.0458 25.2604 76.0992 24.6075 75.1727 23.8576C75.425 23.1497 75.3156 22.8586 74.733 22.5283C72.0049 20.9787 69.1586 19.6047 66.6582 17.6382C63.1645 14.8877 61.3852 10.8813 61.9121 5.76055C61.9858 5.04998 62.0572 4.3368 62.1286 3.62361V3.62099Z" fill="#E34A94" fill-opacity="0.72"/>
    <path d="M58.3938 23.7239C58.6773 23.2677 59.1037 22.9583 59.2577 22.5178C60.0592 20.2052 60.778 17.8532 61.5616 15.5301C61.758 14.9481 62.0951 14.4289 62.4501 13.8652C62.7693 14.2165 62.9881 14.5993 63.2448 14.9402C64.2539 16.2774 65.2764 17.6015 66.281 19.0279C65.4416 21.6079 64.6446 24.1041 63.7739 26.5662C63.5552 27.1823 63.0997 27.6805 62.7515 28.2338C61.3049 26.7576 59.8582 25.284 58.396 23.7213L58.3938 23.7239Z" fill="#0E4F9F"/>
    <path d="M62.7872 28.3124C63.0975 27.6831 63.5552 27.1823 63.7717 26.5662C64.6424 24.1067 65.4393 21.6106 66.3546 19.0541C67.9196 19.9718 69.393 20.9629 70.853 22.0563C69.893 24.9903 68.9599 27.8273 67.9821 30.646C67.8839 30.9318 67.5334 31.0944 67.299 31.3172C65.8077 30.3418 64.3142 29.3638 62.785 28.3124H62.7872Z" fill="#1460A6"/>
    <path d="M78.0704 26.0522C79.0036 27.0486 79.9368 28.045 80.8253 29.1646C80.631 29.5185 80.4279 29.7231 80.3386 29.9826C79.5081 32.4054 78.6754 34.8255 77.8941 37.2692C77.5838 38.2367 77.3985 39.2619 77.1551 40.2583C75.8224 40.9583 74.4919 41.6558 72.9984 42.4398C72.9984 41.37 72.9984 40.5388 73.0877 39.5792C73.6993 38.2367 74.2887 37.0542 74.733 35.8035C75.8804 32.5706 76.9632 29.3035 78.0704 26.0522Z" fill="#2498BD"/>
    <path d="M78.0303 25.9815C76.9632 29.3035 75.8804 32.5679 74.733 35.8035C74.2887 37.0568 73.7016 38.2367 73.101 39.4638C72.5586 37.5288 71.8241 35.7563 70.6543 34.2093C70.9445 33.9025 71.3039 33.7426 71.3999 33.462C72.467 30.2815 73.494 27.0827 74.6102 23.8891C74.8446 23.9074 75.0008 23.931 75.1549 23.952C76.0992 24.6049 77.0458 25.2604 78.0303 25.9841V25.9815Z" fill="#1D84B5"/>
    <path d="M52.2144 30.1557C52.422 29.8725 52.7547 29.7362 52.8417 29.4844C53.7927 26.7523 54.7147 24.0071 55.6166 21.2514C55.7238 20.9262 55.6613 20.5277 55.726 20.1055C56.7954 21.9436 57.8178 23.8419 58.7934 25.8608C58.6326 26.1912 58.4898 26.3826 58.4116 26.6055C57.3669 29.5972 56.3332 32.5941 55.2952 35.5885C54.2727 33.8081 53.248 32.0304 52.2122 30.1557H52.2144Z" fill="#0E4F9F"/>
    <path d="M74.532 23.8917C73.494 27.0853 72.467 30.2842 71.3999 33.4647C71.3062 33.7452 70.9445 33.9052 70.6208 34.1333C69.4823 33.2549 68.4308 32.3608 67.3414 31.3959C67.5356 31.0996 67.8861 30.9344 67.9843 30.6512C68.9599 27.8326 69.8953 24.9956 70.9334 22.0852C72.1947 22.6358 73.3645 23.2651 74.532 23.8943V23.8917Z" fill="#1972AD"/>
    <path d="M55.3219 35.6619C56.3355 32.5941 57.3713 29.5972 58.4139 26.6055C58.492 26.3826 58.6349 26.1912 58.8179 25.9421C59.7757 26.7497 60.6642 27.5966 61.6129 28.593C60.6731 31.7971 59.6774 34.8596 58.6527 37.9037C58.5657 38.158 58.2665 38.3154 58.0656 38.5173C57.1592 37.5891 56.2506 36.6609 55.3219 35.6593V35.6619Z" fill="#1460A6"/>
    <path d="M64.754 30.7247C65.8211 31.4378 66.8859 32.1484 67.9776 33.032C66.9864 36.2309 65.9706 39.2619 64.9549 42.2903C63.8186 41.8551 62.68 41.4224 61.508 40.8194C62.5662 37.3426 63.6601 34.0336 64.7562 30.722L64.754 30.7247Z" fill="#1D84B5"/>
    <path d="M64.7049 30.6565C63.6601 34.0336 62.564 37.3426 61.4567 40.7538C60.3449 40.1272 59.2466 39.4009 58.108 38.5959C58.2688 38.3154 58.5701 38.1607 58.655 37.9063C59.6819 34.8596 60.6753 31.7997 61.6799 28.648C62.6733 29.2327 63.6645 29.9118 64.7049 30.6565Z" fill="#1972AD"/>
    <path d="M65.0241 42.3454C65.9707 39.2593 66.9864 36.2309 68.0178 33.1028C68.8818 33.8947 69.7323 34.7835 70.5985 35.8454C69.8886 38.2865 69.1608 40.5572 68.4353 42.8252C67.3213 42.6836 66.2095 42.542 65.0241 42.3454Z" fill="#2498BD"/>
    <path d="M77.2333 40.2504C77.3985 39.2593 77.5838 38.2367 77.8941 37.2692C78.6754 34.8255 79.5081 32.4054 80.3386 29.9826C80.4279 29.7231 80.631 29.5185 80.8565 29.2458C82.167 31.3303 82.8077 33.5984 82.129 36.2886C82.1223 36.3961 82.1424 36.4092 82.0933 36.4118C82.0062 36.4878 81.966 36.5612 81.9236 36.6347C80.3855 37.8382 78.8473 39.039 77.231 40.2504H77.2333Z" fill="#2CAAC4"/>
    <path d="M67.1427 10.3281C66.3948 8.81256 66.1492 7.23936 66.8882 5.51408C68.7389 7.44912 70.4511 9.44184 72.1009 11.4922C71.5852 11.6784 71.1343 11.8331 70.6766 11.9223C69.2389 12.2028 68.2232 11.1566 67.1427 10.3255V10.3281Z" fill="#0C439A"/>
    <path d="M68.5089 42.8724C69.1608 40.5572 69.8864 38.2891 70.6275 35.9215C72.0652 37.5104 72.5251 39.5765 72.2862 41.8682C72.2527 42.1933 71.8598 42.681 71.5942 42.7203C70.6007 42.8698 69.5894 42.8645 68.5089 42.8698V42.8724Z" fill="#2CAAC4"/>
    <path d="M72.1634 11.4346C70.4511 9.44447 68.7366 7.45174 66.9462 5.44591C67.2052 4.87431 67.5445 4.31845 67.9999 3.79404C68.4955 4.13228 68.913 4.384 69.2412 4.74845C70.7525 6.42392 72.2371 8.13084 73.715 9.90594C73.5989 10.176 73.4984 10.3648 73.3332 10.5903C72.9001 10.8944 72.5295 11.1619 72.1612 11.4319L72.1634 11.4346Z" fill="#1460A6"/>
    <path d="M73.7328 9.82727C72.2371 8.13084 70.7525 6.42391 69.2412 4.74845C68.913 4.38399 68.4955 4.13228 68.0692 3.76782C68.6831 3.37714 69.3461 3.04939 70.1051 2.81603C71.5808 4.45479 72.9582 5.9939 74.3512 7.63266C74.1548 8.42975 73.9449 9.1272 73.7351 9.82727H73.7328Z" fill="#1D84B5"/>
    <path d="M74.3356 7.53565C72.9582 5.99653 71.5785 4.45479 70.1833 2.83701C72.0094 2.54335 73.3332 3.56855 74.3021 6.11976C74.3356 6.71496 74.3356 7.12399 74.3356 7.53565Z" fill="#2CAAC4"/>
    <path d="M72.0987 11.4949C72.5318 11.1645 72.9001 10.8971 73.3421 10.6716C73.4136 10.8184 73.4113 10.9233 73.4091 11.0282C73.1368 11.3008 72.8666 11.5735 72.4559 11.8646C72.246 11.9563 72.1768 12.0271 72.1054 12.0979C72.1054 12.0979 72.0674 12.1373 71.9759 12.132C71.8174 12.1845 71.7504 12.2448 71.6857 12.3024C69.7993 12.9999 68.3348 12.2343 67.1471 10.412C68.2254 11.1566 69.2389 12.2028 70.6766 11.9223C71.1343 11.8331 71.5852 11.6784 72.1009 11.4922L72.0987 11.4949Z" fill="#A62F73"/>
    <path d="M73.4806 11.0072C73.4091 10.9233 73.4114 10.8184 73.4069 10.6349C73.4984 10.3674 73.5989 10.1786 73.715 9.90855C73.9427 9.12982 74.1525 8.42974 74.349 7.63528C74.3356 7.12661 74.3378 6.71757 74.3311 6.21415C74.9941 7.94467 74.6481 9.54934 73.4806 11.0098V11.0072Z" fill="#E34A94"/>
    <path d="M55.4939 7.69035C55.3197 7.75065 55.1925 7.74803 54.9737 7.73754C55.1188 7.36259 55.3599 6.99551 55.5988 6.62843C55.6613 6.67039 55.7238 6.71234 55.7863 6.75429C55.7059 7.04533 55.6233 7.33637 55.4939 7.69035Z" fill="#0E4F9F"/>
    <path d="M54.7552 12.2789C54.7102 11.9537 54.7012 11.5473 54.7574 11.1094C54.8136 11.4529 54.8024 11.8252 54.7552 12.2789Z" fill="#0E4F9F"/>
    <path d="M54.8464 15.6114C54.7594 15.462 54.6902 15.2338 54.6745 14.9612C54.7728 15.1211 54.8197 15.3282 54.8464 15.6114Z" fill="#0E4F9F"/>
    <path d="M54.9581 10.2573C54.9156 10.1524 54.9134 9.99509 54.9603 9.81941C55.0072 9.93478 55.0027 10.0711 54.9581 10.2573Z" fill="#0E4F9F"/>
    <path d="M55.3041 18.4327C55.217 18.3567 55.1411 18.2098 55.1121 18.0237C55.2103 18.1102 55.2617 18.2361 55.3041 18.4327Z" fill="#0E4F9F"/>
    <path d="M72.1768 12.0953C72.1768 12.0271 72.246 11.9537 72.3867 11.8777C72.3867 11.9459 72.3197 12.0193 72.1768 12.0953Z" fill="#E34A94"/>
    <path d="M81.975 36.6084C81.966 36.5586 82.0065 36.4852 82.1009 36.3987C82.1301 36.4669 82.0852 36.5324 81.975 36.6084Z" fill="#E34A94"/>
    <path d="M71.7482 12.3077C71.7482 12.2421 71.8174 12.1845 71.9491 12.1268C71.9491 12.1897 71.8799 12.2526 71.7482 12.3077Z" fill="#E34A94"/>
    <path d="M74.6102 23.8891C73.3622 23.2624 72.1947 22.6332 70.9468 21.9803C69.393 20.9629 67.9196 19.9718 66.3703 18.9571C65.2764 17.6041 64.2539 16.28 63.2449 14.9428C62.9859 14.6019 62.7694 14.2191 62.4881 13.776C62.1063 12.0691 61.5571 10.4513 61.4857 8.80732C61.4143 7.1371 61.8116 5.43804 62.0661 3.68916C62.0572 4.3368 61.9858 5.04998 61.9121 5.76055C61.3875 10.8813 63.1645 14.8904 66.6583 17.6382C69.1586 19.6047 72.0049 20.9787 74.733 22.5283C75.3156 22.8586 75.425 23.1497 75.1728 23.8576C75.0009 23.931 74.8446 23.9101 74.6102 23.8891Z" fill="#A62F73"/>
  </g>
  <defs>
    <clipPath id="clip0_19_2">
      <rect width="137" height="80" fill="white"/>
    </clipPath>
  </defs>
</svg>