<svg width="151" height="93" viewBox="0 0 151 93" fill="none" xmlns="http://www.w3.org/2000/svg">
<g clip-path="url(#clip0_19_2)">
<path d="M123.449 75.1138C125.762 75.2053 127.969 75.1535 130.147 75.4369C131.879 75.6625 133.343 76.7385 134.111 78.8325C135.048 81.3898 134.327 83.4046 132.063 84.9744C133.087 87.0654 134.113 89.1594 135.137 91.2534C135.621 92.2441 135.422 92.7287 134.46 92.6769C134.022 92.6525 133.569 92.5976 133.141 92.686C131.431 93.0305 130.28 92.2471 129.741 90.1897C128.88 86.9099 126.98 86.1327 124.286 86.9282C124.286 88.312 124.264 89.833 124.293 91.3479C124.31 92.2776 124.047 92.7074 123.25 92.683C119.234 92.5641 119.972 93.4328 119.923 88.6961C119.881 84.7336 119.945 80.768 119.898 76.8025C119.884 75.507 120.236 74.9767 121.291 75.0986C121.965 75.1748 122.649 75.1138 123.449 75.1138ZM129 82.5024C129.709 82.0757 130.122 81.3106 129.746 80.4663C129.485 79.8841 128.833 79.2928 128.309 79.2227C127.019 79.0459 125.703 79.1647 124.35 79.1647V82.795C125.489 82.795 126.562 82.8133 127.634 82.7859C128.028 82.7767 128.422 82.6518 129.003 82.5024H129Z" fill="#060707"/>
<path d="M52.8677 84.252C52.8677 81.6246 52.8997 79.1465 52.853 76.6714C52.8308 75.5192 53.163 75.0864 54.1054 75.0956C57.8258 75.1382 61.5461 75.1382 65.264 75.0956C66.1991 75.0834 66.6075 75.501 66.5189 76.6592C66.4894 77.0524 66.4845 77.4548 66.5189 77.848C66.6247 79.0428 66.1622 79.4025 65.2542 79.3873C62.6239 79.3446 59.9911 79.372 57.2943 79.372V81.655C59.2037 81.655 61.0712 81.6489 62.9413 81.655C64.2823 81.6611 64.2749 81.7373 64.329 83.9502C64.361 85.2609 64.1814 85.9833 62.9019 85.8858C61.0737 85.7456 59.2307 85.8492 57.3115 85.8492V88.437H60.616C61.8562 88.437 63.0963 88.437 64.3364 88.437C66.5755 88.437 66.5435 88.437 66.5312 91.2047C66.5263 92.2898 66.231 92.6982 65.3403 92.6891C61.5806 92.6495 57.8208 92.6403 54.0611 92.6921C53.0744 92.7074 52.8283 92.1983 52.853 91.0888C52.8997 88.8607 52.8677 86.6295 52.8677 84.252Z" fill="#060707"/>
<path d="M139.098 75.1139C142.651 75.1139 146.094 75.1565 149.533 75.0895C150.628 75.0681 151.03 75.4888 151 76.8726C150.946 79.372 151 79.3751 148.948 79.3751C146.591 79.3751 144.231 79.3751 141.783 79.3751V81.6581C143.611 81.6581 145.474 81.6215 147.336 81.6855C147.794 81.7008 148.608 81.9964 148.635 82.2586C148.744 83.3528 148.65 84.4898 148.53 85.5932C148.515 85.7334 147.895 85.8401 147.553 85.8431C145.641 85.8675 143.729 85.8553 141.756 85.8553V88.4431C144.322 88.4431 146.829 88.4157 149.339 88.4645C149.853 88.4736 150.766 88.6687 150.803 88.9339C150.961 90.019 150.887 91.1651 150.803 92.2807C150.791 92.4422 150.274 92.6586 149.991 92.6586C146.111 92.683 142.231 92.6617 138.35 92.686C137.551 92.6921 137.319 92.2349 137.324 91.3175C137.341 86.4101 137.366 81.5057 137.314 76.6013C137.297 74.9218 138.141 75.1017 139.106 75.1169L139.098 75.1139Z" fill="#060707"/>
<path d="M28.9608 75.4918C32.4032 77.211 33.9804 80.509 33.6015 85.0659C33.2595 89.1869 31.1729 92.0124 27.701 92.6495C26.1484 92.936 24.4974 92.936 22.9497 92.6221C19.1924 91.857 17.1206 88.501 17.1747 83.682C17.224 79.0672 19.4581 75.6869 23.1908 75.1505C25.051 74.8822 26.9776 75.3242 28.9608 75.4918ZM26.9235 79.2836C24.4556 78.4241 22.4871 79.4056 22.0122 81.9629C21.7809 83.2126 21.8277 84.6147 22.0122 85.8919C22.2435 87.4769 23.181 88.4888 24.4752 88.7327C25.8458 88.9918 27.1843 88.876 28.1956 87.4129C29.4505 85.5993 29.4825 80.5577 26.9186 79.2836H26.9235Z" fill="#060707"/>
<path d="M72.0848 87.1111C73.1723 88.7784 75.9798 89.4215 77.3823 88.3486C77.6555 88.1383 78.0221 87.6171 77.968 87.3702C77.8818 86.9892 77.5054 86.535 77.188 86.4436C75.9478 86.0809 74.6757 85.8766 73.4282 85.5566C72.5695 85.3371 71.7034 85.1055 70.884 84.7336C69.4446 84.0783 68.3939 82.9322 68.2783 80.8839C68.1552 78.7258 68.9328 77.1347 70.4337 76.1319C72.3653 74.8365 74.4789 74.5835 76.6073 74.9371C77.7342 75.123 78.8882 75.5314 79.902 76.1593C80.6426 76.6166 81.3217 77.4822 81.7622 78.3662C82.6676 80.1889 82.1977 81.0729 80.4851 81.0789C79.3065 81.082 78.1599 81.2832 77.311 79.7256C76.7672 78.7289 74.3288 78.6801 73.4651 79.4116C73.2043 79.6342 72.9066 80.1158 72.9312 80.4419C72.9558 80.7589 73.3372 81.2131 73.6201 81.2923C74.9415 81.6642 76.2923 81.8684 77.6112 82.2494C78.6545 82.5481 79.7322 82.856 80.6771 83.4412C82.9924 84.8799 83.3418 88.4187 81.4718 90.6591C78.8439 93.8138 71.509 93.7773 68.9377 90.5768C68.608 90.1653 68.325 89.6532 68.1331 89.1228C67.4712 87.2879 67.8501 86.5564 69.4741 86.6173C70.3254 86.6478 71.1743 86.8794 72.0848 87.1141V87.1111Z" fill="#060707"/>
<path d="M5.34218 86.1479C4.64584 86.0626 4.33089 86.2516 4.36041 87.102C4.40962 88.4858 4.34319 89.8788 4.38256 91.2626C4.40962 92.2532 4.15373 92.7105 3.29007 92.683C-0.651759 92.5611 0.0716475 93.3932 0.0248967 88.7662C-0.0169329 84.7519 0.0445813 80.7376 0.000291082 76.7233C-0.0144723 75.4857 0.337389 75.0651 1.329 75.0956C4.86483 75.2053 4.32843 74.489 4.37272 78.8843C4.38256 79.8628 4.37272 80.8412 4.37272 81.8806H10.3076C10.3076 80.0365 10.3322 78.2625 10.2978 76.4916C10.2781 75.4644 10.6201 75.0834 11.4419 75.1017C15.2337 75.1931 14.6259 74.4768 14.6579 78.9697C14.6874 82.984 14.6284 86.9983 14.6849 91.0127C14.7046 92.3386 14.3282 92.7104 13.2923 92.6952C10.3076 92.6464 10.3076 92.6952 10.3076 89.0101V86.1449C8.62703 86.1449 7.04489 86.1449 5.34218 86.1449V86.1479Z" fill="#040505"/>
<path d="M95.0787 86.9709C94.8794 86.599 94.685 86.1875 94.4833 86.1814C92.7682 86.1296 91.0508 86.151 89.1561 86.151C89.1561 87.9006 89.1192 89.5618 89.1684 91.223C89.2029 92.3264 88.8658 92.7165 87.98 92.6891C84.1809 92.5702 84.8477 93.3749 84.8058 88.8058C84.7689 84.7915 84.8231 80.7772 84.7837 76.7659C84.7714 75.5741 85.0544 75.0712 86.0829 75.1017C89.6679 75.2145 89.1094 74.5256 89.1561 78.8569C89.166 79.8384 89.1561 80.8199 89.1561 81.8776H95.0812C95.0812 80.0761 95.1058 78.3052 95.0713 76.5343C95.0516 75.5284 95.3494 75.0895 96.1884 75.1108C100.007 75.2053 99.3995 74.4646 99.4315 78.9362C99.461 82.9993 99.4142 87.0623 99.4536 91.1254C99.4659 92.2685 99.1854 92.6952 98.2233 92.6982C95.0812 92.7074 95.0812 92.7501 95.0812 88.9034C95.0812 88.309 95.0812 87.7146 95.0812 86.9739L95.0787 86.9709Z" fill="#040505"/>
<path d="M113.816 92.3965C113.292 89.6227 111.749 89.3271 109.913 89.6258C109.483 89.6959 109.033 89.6745 108.597 89.6288C107.217 89.4825 105.994 89.5282 105.659 91.7411C105.6 92.1283 104.911 92.555 104.476 92.6312C103.654 92.7714 102.802 92.6403 101.963 92.68C101.092 92.7196 100.888 92.3142 101.245 91.3388C101.956 89.4033 102.638 87.4525 103.331 85.5078C104.397 82.5237 105.492 79.5549 106.518 76.5495C106.882 75.4857 107.391 75.056 108.336 75.0956C113.257 75.2967 111.84 74.0166 113.914 79.6159C115.329 83.4351 116.675 87.294 118.036 91.1437C118.523 92.5184 118.439 92.68 117.209 92.6617C116.102 92.6434 114.995 92.5397 113.816 92.3965ZM111.213 85.1512C110.73 83.6089 110.251 82.0665 109.643 80.1249C108.956 82.1458 108.41 83.7491 107.847 85.4072C109.042 85.4072 110.105 85.4072 111.213 85.1481V85.1512Z" fill="#040505"/>
<path d="M49.5115 77.4152C51.9278 81.1643 50.8968 85.8919 47.297 87.2391C45.8034 87.8 44.1524 87.7329 42.5678 87.9036C41.9403 87.9707 41.3031 87.9158 40.5083 87.9158C40.5083 89.1442 40.4837 90.2659 40.5157 91.3876C40.5427 92.3477 40.2155 92.7074 39.4429 92.686C35.4986 92.5702 36.19 93.4084 36.1457 88.815C36.1088 84.8555 36.1802 80.893 36.1162 76.9336C36.094 75.4827 36.4976 75.0285 37.6491 75.0925C40.4 75.248 43.1706 75.0864 45.9019 75.437C47.1248 75.5955 48.2714 76.6775 49.514 77.4182M42.8975 79.1526H40.5993V84.0935C42.0831 83.9746 43.4782 83.9594 44.8438 83.7155C45.7173 83.5601 46.1799 82.7066 46.1897 81.5727C46.1996 80.3687 45.6927 79.5915 44.7848 79.308C44.2533 79.1434 43.68 79.1983 42.8975 79.1526Z" fill="#060707"/>
<path d="M64.3438 27.4785C60.5398 22.0102 59.7056 12.6678 62.6657 6.46803C63.6351 4.43801 65.8201 3.2706 67.513 1.81666C68.1552 1.26496 68.9721 1.02416 69.8136 0.713257C69.4396 1.92639 68.9598 3.06638 68.4111 4.28256C68.1306 6.31868 67.6902 8.29079 67.7714 10.2324C67.8501 12.1436 68.4529 14.0212 68.7851 16.0238C68.4431 16.7705 68.0715 17.371 67.855 18.0507C66.9914 20.7483 66.1991 23.4855 65.3157 26.1739C65.1459 26.686 64.676 27.0456 64.3463 27.4785H64.3438Z" fill="#0C439A"/>
<path d="M60.3085 14.3686C60.3208 15.2709 60.3331 16.1701 60.274 17.2582C60.2789 17.7093 60.3552 17.9745 60.4315 18.2428C60.5545 19.0505 60.68 19.8582 60.7465 20.8336C60.776 21.172 60.8596 21.3427 60.9433 21.5134C61.1205 22.0407 61.2952 22.568 61.4206 23.269C61.3518 23.8665 61.4182 24.3298 61.3001 24.7077C60.306 27.9113 59.2898 31.1026 58.2416 34.2787C58.1456 34.5713 57.7765 34.7298 57.5354 34.9493C54.5384 25.6709 55.567 17.0662 60.5225 9.04975C60.8326 9.01012 60.9704 9.01317 61.1106 9.01622C60.9827 9.73556 60.8572 10.458 60.6259 11.3084C60.525 11.6223 60.5275 11.8052 60.5299 11.985C60.5201 12.2137 60.5102 12.4423 60.3897 12.8111C60.2888 13.4237 60.2986 13.8992 60.3085 14.3717V14.3686Z" fill="#0C439A"/>
<path d="M68.4775 4.2094C68.9573 3.06942 69.4372 1.92639 69.8948 0.676674C70.2344 0.417587 70.5936 0.271279 71.258 0C70.7954 1.03635 70.4608 1.72826 70.168 2.44456C68.4652 6.61738 68.6104 13.2835 72.3825 17.9258C74.6831 20.7574 77.4783 22.4613 80.3448 24.0981C83.0933 25.6648 85.9131 27.0792 88.5508 28.8958C90.7161 30.3863 91.9243 32.968 92.6255 35.9521C93.1373 38.1284 92.66 39.8018 91.4445 41.3106C91.191 41.6246 90.9253 41.9264 90.598 42.1458C91.2722 39.0581 90.566 36.4215 89.1684 33.855C88.1055 32.6053 87.077 31.4471 86.0042 30.2065C84.919 29.3652 83.8758 28.6062 82.8546 27.7345C83.1327 26.9115 83.0121 26.5732 82.3699 26.1891C79.3631 24.3877 76.2259 22.7905 73.47 20.5044C69.6192 17.307 67.6582 12.6495 68.2389 6.69663C68.3201 5.8706 68.3988 5.04153 68.4775 4.21245V4.2094Z" fill="#E34A94" fill-opacity="0.72"/>
<path d="M64.361 27.579C64.6735 27.0487 65.1435 26.689 65.3133 26.1769C66.1966 23.4885 66.9889 20.7544 67.8526 18.0538C68.0691 17.3771 68.4406 16.7736 68.8319 16.1183C69.1837 16.5267 69.4249 16.9717 69.7078 17.368C70.82 18.9225 71.9469 20.4618 73.0542 22.1199C72.129 25.1192 71.2506 28.021 70.291 30.8832C70.0499 31.5995 69.5479 32.1786 69.164 32.8217C67.5696 31.1057 65.9751 29.3927 64.3635 27.576L64.361 27.579Z" fill="#0E4F9F"/>
<path d="M69.2034 32.9132C69.5454 32.1816 70.0499 31.5994 70.2885 30.8831C71.2482 28.024 72.1266 25.1223 73.1354 22.1504C74.8603 23.2172 76.4842 24.3694 78.0934 25.6404C77.0354 29.0512 76.0069 32.3493 74.9292 35.626C74.8209 35.9582 74.4346 36.1472 74.1762 36.4063C72.5326 35.2724 70.8864 34.1354 69.201 32.9132H69.2034Z" fill="#1460A6"/>
<path d="M86.0484 30.2857C87.077 31.444 88.1055 32.6023 89.0848 33.9038C88.8707 34.3153 88.6468 34.553 88.5484 34.8548C87.6331 37.6712 86.7153 40.4846 85.8541 43.3254C85.512 44.4502 85.3078 45.642 85.0396 46.8002C83.5707 47.6141 82.1042 48.4249 80.458 49.3362C80.458 48.0926 80.458 47.1264 80.5565 46.0108C81.2307 44.4502 81.8803 43.0755 82.3699 41.6216C83.6346 37.8633 84.828 34.0654 86.0484 30.2857Z" fill="#2498BD"/>
<path d="M86.0042 30.2034C84.828 34.0653 83.6346 37.8602 82.3699 41.6215C81.8803 43.0785 81.2331 44.4502 80.5712 45.8767C79.9733 43.6272 79.1638 41.5667 77.8745 39.7683C78.1943 39.4117 78.5905 39.2257 78.6963 38.8996C79.8724 35.2023 81.0043 31.4836 82.2346 27.7711C82.4929 27.7924 82.6652 27.8198 82.835 27.8442C83.8758 28.6032 84.9191 29.3652 86.0042 30.2065V30.2034Z" fill="#1D84B5"/>
<path d="M57.5502 35.056C57.779 34.7268 58.1456 34.5683 58.2416 34.2757C59.2898 31.0996 60.306 27.9082 61.3001 24.7047C61.4182 24.3267 61.3493 23.8634 61.4207 23.3727C62.5993 25.5094 63.7262 27.7162 64.8015 30.0632C64.6243 30.4473 64.4668 30.6698 64.3807 30.9289C63.2292 34.4067 62.0899 37.8907 60.9458 41.3716C59.8188 39.302 58.6894 37.2354 57.5477 35.056H57.5502Z" fill="#0E4F9F"/>
<path d="M82.1484 27.7741C81.0043 31.4867 79.8724 35.2053 78.6963 38.9027C78.5929 39.2288 78.1943 39.4147 77.8375 39.6799C76.5826 38.6588 75.4237 37.6194 74.223 36.4977C74.437 36.1533 74.8233 35.9613 74.9316 35.6321C76.0069 32.3554 77.0378 29.0574 78.182 25.674C79.5722 26.3141 80.8616 27.0456 82.1484 27.7772V27.7741Z" fill="#1972AD"/>
<path d="M60.9753 41.457C62.0924 37.8907 63.2341 34.4067 64.3832 30.9289C64.4693 30.6698 64.6268 30.4473 64.8285 30.1577C65.8841 31.0965 66.8634 32.0811 67.9092 33.2393C66.8733 36.9641 65.7758 40.5242 64.6464 44.0631C64.5505 44.3587 64.2208 44.5416 63.9993 44.7763C63.0003 43.6973 61.9989 42.6183 60.9753 41.4539V41.457Z" fill="#1460A6"/>
<path d="M71.3712 35.7174C72.5473 36.5465 73.721 37.3725 74.9242 38.3997C73.8317 42.1184 72.7122 45.642 71.5926 49.1625C70.3402 48.6565 69.0853 48.1536 67.7935 47.4525C68.9598 43.4108 70.1655 39.5641 71.3736 35.7144L71.3712 35.7174Z" fill="#1D84B5"/>
<path d="M71.3171 35.6382C70.1655 39.5641 68.9574 43.4108 67.7369 47.3763C66.5116 46.6478 65.301 45.8035 64.0461 44.8678C64.2232 44.5416 64.5554 44.3618 64.6489 44.0661C65.7808 40.5243 66.8757 36.9671 67.983 33.3033C69.0779 33.9831 70.1704 34.7725 71.3171 35.6382Z" fill="#1972AD"/>
<path d="M71.6689 49.2265C72.7122 45.6389 73.8317 42.1184 74.9685 38.482C75.9207 39.4025 76.8582 40.4358 77.8129 41.6703C77.0305 44.5081 76.2283 47.1477 75.4286 49.7843C74.2008 49.6197 72.9754 49.4551 71.6689 49.2265Z" fill="#2498BD"/>
<path d="M85.1257 46.7911C85.3078 45.6389 85.5121 44.4502 85.8541 43.3254C86.7153 40.4846 87.6331 37.6712 88.5484 34.8548C88.6468 34.553 88.8707 34.3153 89.1192 33.9983C90.5636 36.4215 91.2698 39.0581 90.5218 42.1854C90.5144 42.3104 90.5365 42.3256 90.4824 42.3287C90.3864 42.4171 90.3421 42.5024 90.2954 42.5878C88.6001 43.9869 86.9047 45.3829 85.1233 46.7911H85.1257Z" fill="#2CAAC4"/>
<path d="M74.004 12.0064C73.1797 10.2446 72.909 8.41576 73.7235 6.41013C75.7633 8.65961 77.6505 10.9762 79.4689 13.3598C78.9005 13.5762 78.4035 13.756 77.899 13.8596C76.3144 14.1858 75.1949 12.9696 74.004 12.0034V12.0064Z" fill="#0C439A"/>
<path d="M75.5099 49.8392C76.2283 47.1477 77.028 44.5111 77.8449 41.7587C79.4295 43.6058 79.9364 46.0077 79.6731 48.6717C79.6362 49.0497 79.2032 49.6166 78.9104 49.6624C77.8154 49.8361 76.7008 49.83 75.5099 49.8361V49.8392Z" fill="#2CAAC4"/>
<path d="M79.5378 13.2927C77.6505 10.9792 75.7608 8.66266 73.7874 6.33087C74.0729 5.66639 74.4469 5.0202 74.9488 4.41058C75.4951 4.80379 75.9552 5.0964 76.3169 5.52009C77.9827 7.46781 79.619 9.45211 81.2479 11.5157C81.1199 11.8296 81.0092 12.0491 80.8271 12.3112C80.3498 12.6648 79.9413 12.9757 79.5353 13.2896L79.5378 13.2927Z" fill="#1460A6"/>
<path d="M81.2676 11.4242C79.619 9.45211 77.9827 7.46781 76.3169 5.52009C75.9552 5.0964 75.4951 4.80379 75.0251 4.3801C75.7018 3.92594 76.4326 3.54493 77.2692 3.27365C78.8956 5.1787 80.4138 6.96793 81.9491 8.87298C81.7326 9.79959 81.5013 10.6104 81.27 11.4242H81.2676Z" fill="#1D84B5"/>
<path d="M81.9319 8.76018C80.4138 6.97095 78.8931 5.17868 77.3553 3.29802C79.368 2.95663 80.8271 4.14843 81.895 7.11421C81.9319 7.80613 81.9319 8.28163 81.9319 8.76018Z" fill="#2CAAC4"/>
<path d="M79.4664 13.3628C79.9438 12.9787 80.3498 12.6678 80.837 12.4057C80.9157 12.5764 80.9133 12.6983 80.9108 12.8202C80.6106 13.1372 80.3129 13.4542 79.8601 13.7926C79.6288 13.8993 79.5526 13.9816 79.4738 14.0639C79.4738 14.0639 79.432 14.1096 79.3311 14.1035C79.1564 14.1644 79.0826 14.2346 79.0112 14.3016C76.9321 15.1124 75.3179 14.2224 74.0089 12.1039C75.1974 12.9696 76.3145 14.1858 77.8991 13.8596C78.4035 13.756 78.9005 13.5762 79.4689 13.3598L79.4664 13.3628Z" fill="#A62F73"/>
<path d="M80.9895 12.7958C80.9108 12.6983 80.9132 12.5764 80.9083 12.363C81.0092 12.0521 81.1199 11.8326 81.2479 11.5187C81.4989 10.6134 81.7302 9.79957 81.9467 8.876C81.9319 8.28467 81.9344 7.80917 81.927 7.22394C82.6578 9.23567 82.2764 11.1011 80.9895 12.7989V12.7958Z" fill="#E34A94"/>
<path d="M61.1647 8.94001C60.9728 9.01011 60.8326 9.00707 60.5914 8.99487C60.7514 8.559 61.0171 8.13227 61.2804 7.70554C61.3493 7.75431 61.4182 7.80307 61.4871 7.85184C61.3985 8.19018 61.3075 8.52852 61.1647 8.94001Z" fill="#0E4F9F"/>
<path d="M60.3506 14.2742C60.301 13.8962 60.2911 13.4238 60.3531 12.9147C60.415 13.314 60.4026 13.7469 60.3506 14.2742Z" fill="#0E4F9F"/>
<path d="M60.4512 18.1483C60.3552 17.9745 60.2789 17.7094 60.2617 17.3924C60.37 17.5783 60.4217 17.8191 60.4512 18.1483Z" fill="#0E4F9F"/>
<path d="M60.5742 11.9241C60.5274 11.8022 60.525 11.6193 60.5767 11.4151C60.6283 11.5492 60.6234 11.7077 60.5742 11.9241Z" fill="#0E4F9F"/>
<path d="M60.9556 21.428C60.8596 21.3396 60.776 21.1689 60.744 20.9525C60.8523 21.0531 60.9088 21.1994 60.9556 21.428Z" fill="#0E4F9F"/>
<path d="M79.5526 14.0608C79.5526 13.9815 79.6288 13.8962 79.7838 13.8078C79.7838 13.8871 79.71 13.9724 79.5526 14.0608Z" fill="#E34A94"/>
<path d="M90.352 42.5573C90.3421 42.4994 90.3867 42.4141 90.4908 42.3135C90.523 42.3927 90.4734 42.4689 90.352 42.5573Z" fill="#E34A94"/>
<path d="M79.0801 14.3077C79.0801 14.2315 79.1564 14.1644 79.3016 14.0974C79.3016 14.1705 79.2253 14.2437 79.0801 14.3077Z" fill="#E34A94"/>
<path d="M82.2346 27.771C80.8591 27.0426 79.5722 26.311 78.1968 25.552C76.4842 24.3694 74.8602 23.2172 73.1526 22.0376C71.9469 20.4648 70.82 18.9255 69.7078 17.371C69.4224 16.9747 69.1837 16.5297 68.8737 16.0146C68.4529 14.0303 67.8476 12.1496 67.7689 10.2385C67.6902 8.29686 68.1281 6.32171 68.4086 4.28864C68.3988 5.04151 68.3201 5.87059 68.2389 6.69662C67.6606 12.6495 69.6192 17.31 73.47 20.5044C76.2259 22.7905 79.3631 24.3877 82.3699 26.1891C83.0121 26.5732 83.1327 26.9115 82.8546 27.7345C82.6652 27.8198 82.4929 27.7954 82.2346 27.771Z" fill="#A62F73"/>
</g>
<defs>
<clipPath id="clip0_19_2">
<rect width="151" height="93" fill="white"/>
</clipPath>
</defs>
</svg>
