<?xml version="1.0" encoding="UTF-8"?>
<svg id="Layer_1" data-name="Layer 1" xmlns="http://www.w3.org/2000/svg" viewBox="0 0 496.57 250.27">
  <g id="OraluiRobert">
    <path d="m150.47,190.21c2.59-.35,4.65.49,6.18,2.53,1.66,3.66,2.45,7.52,2.38,11.56.02,7.62-1.62,14.86-4.91,21.7-.62.94-1.36,1.78-2.22,2.53-.26,5.28-.21,10.56.16,15.84,4.2-.86,7.64-2.97,10.3-6.34,1.64-2.44,3.28-4.87,4.91-7.29.39-1.85.39-3.7,0-5.54.41-2.74,1.89-3.58,4.44-2.53.38.29.64.66.79,1.11.28,6.02.49,12.04.63,18.06.81,1.38,2.02,2.18,3.64,2.38,1.85.27,3.65.06,5.39-.63.9-.48,1.58-1.16,2.06-2.06.41-6,.62-12.02.63-18.06.16-.58.53-.95,1.11-1.11,1.72-.52,3.04-.05,3.96,1.43.11,6.97.21,13.94.32,20.91,4.28-.93,7.77-3.15,10.46-6.65,1.66-2.38,3.25-4.8,4.75-7.29.22-1.91.17-3.81-.16-5.7.27-2.65,1.64-3.54,4.12-2.69.49.38.86.86,1.11,1.43.03,6.88.3,13.74.79,20.6,4.06-.95,7.39-3.06,9.98-6.34,1.61-2.06,2.98-4.28,4.12-6.65,1.5-1.25,2.98-1.25,4.44,0,.69,1.58.48,3.06-.63,4.44-2.92,5.56-7.2,9.73-12.83,12.52-2.68.85-5.43,1.32-8.24,1.43-1.19-.15-1.99-.78-2.38-1.9-.11-2.43-.21-4.86-.32-7.29-4.47,6.22-10.54,9.39-18.22,9.51-1.2-.17-2.04-.81-2.53-1.9-4.52,1.82-8.95,1.66-13.31-.48-2.69-1.85-4.01-4.44-3.96-7.76-4.63,6.99-11.12,10.1-19.49,9.35-.86-.77-1.39-1.72-1.58-2.85-.02-17.35.14-34.72.48-52.12.3-2.25,1.51-3.62,3.64-4.12Zm1.58,5.7c.7.55,1.06,1.28,1.11,2.22.88,6.53.46,12.97-1.27,19.33-.24-7.19-.19-14.37.16-21.55Z" style="fill: #29ade3; fill-rule: evenodd; isolation: isolate; opacity: .95;"/>
    <path d="m31.44,190.84c2.36.08,4.68.34,6.97.79,1.93,2.22,1.51,3.86-1.27,4.91-12.39-1.38-21.73,3.26-28.04,13.94-3.63,6.63-4.58,13.6-2.85,20.91,3.31,8.9,9.76,13.44,19.33,13.62,8.32-.15,15.08-3.42,20.28-9.82,3.52-6.55,3.95-13.31,1.27-20.28-4.86-9.51-12.41-12.73-22.65-9.66-7.48,4.22-11.49,10.66-12.04,19.33-.18,4.21,1.19,7.8,4.12,10.77,1.72,1.17,3.62,1.91,5.7,2.22,1.69,1.58,1.69,3.17,0,4.75-5.23.05-9.29-2.11-12.2-6.5-2.49-4.78-3.33-9.85-2.53-15.21,1.73-9.44,6.85-16.25,15.37-20.44,11.47-3.57,20.61-.45,27.41,9.35,3.87,7.36,4.72,15.07,2.53,23.13-2.66,7.21-7.58,12.22-14.73,15.05-10.43,4.25-20.25,3.19-29.47-3.17-7.2-6.91-9.89-15.31-8.08-25.19,3.54-16.93,13.84-26.44,30.89-28.52Z" style="fill: #29ade3; fill-rule: evenodd; isolation: isolate; opacity: .94;"/>
    <path d="m208.24,207.75c3.56-.5,4.99.98,4.28,4.44-1.49,1.8-3.18,2.01-5.07.63-1.2-1.96-.94-3.65.79-5.07Z" style="fill: #29ade3; fill-rule: evenodd; isolation: isolate; opacity: .91;"/>
    <path d="m60.27,216.14c1.4-.28,2.51.14,3.33,1.27.4,1.12.66,2.29.79,3.49-.33.92-.33,1.82,0,2.69,3.27-.11,6.55-.21,9.82-.32,2.23,1.44,3.55,3.5,3.96,6.18-.06,4.33-.01,8.66.16,12.99,5.99-2.46,10.8-6.36,14.42-11.72.63-.68,1.37-1.21,2.22-1.58,2.55-5.9,7.03-8.48,13.47-7.76,1.98.49,3.83,1.28,5.54,2.38.82-2.55,2.4-3.18,4.75-1.9.21.42.42.85.63,1.27.11,6.65.21,13.31.32,19.96,6.09-2.81,10.89-7.09,14.42-12.83,2.88-1.02,4.2-.02,3.96,3.01-4.23,7.64-10.52,12.76-18.85,15.37-2.52.85-4.16.06-4.91-2.38-5.18,3.31-10.41,3.36-15.68.16-2.41-2.23-4.04-4.92-4.91-8.08-4.3,4.5-9.42,7.73-15.37,9.66-1.35.43-2.72.54-4.12.32-.69-.26-1.16-.74-1.43-1.43.07-5.81.07-11.62,0-17.43-.21-.42-.42-.85-.63-1.27-3.09.44-6.2.76-9.35.95-1.22,3.28-3.02,6.18-5.39,8.71-1.78.83-3.1.35-3.96-1.43-.28-1.6.25-2.86,1.58-3.8,1.62-2.18,2.73-4.61,3.33-7.29-.89-2.83-.68-5.57.63-8.24.44-.32.87-.64,1.27-.95Zm45.94,10.14c6.7,1.56,9.18,5.68,7.45,12.36-2.69,4.91-6.54,6.12-11.56,3.64-3.66-3.88-4.13-8.16-1.43-12.83,1.49-1.77,3.33-2.83,5.54-3.17Z" style="fill: #29ade3; fill-rule: evenodd; isolation: isolate; opacity: .94;"/>
    <path d="m373.63,250.07h-5.07c-2.76-.83-5.24-2.2-7.45-4.12-.59.76-1.01,1.6-1.27,2.53-.29.38-.66.64-1.11.79-2.98.29-5.94.19-8.87-.32-.2-.24-.36-.5-.48-.79-.21-16.16-.21-32.32,0-48.48.3-.82.88-1.3,1.74-1.43,2.75-.21,5.49-.21,8.24,0,.74.11,1.32.48,1.74,1.11.11,4.54.21,9.08.32,13.62,2.6-2.63,5.77-3.9,9.51-3.8,10.59.76,16.92,6.36,19.01,16.79,1.23,8.68-1.57,15.7-8.4,21.07-2.48,1.55-5.12,2.55-7.92,3.01Zm-5.39-30.1c7.77.22,11.2,4.23,10.3,12.04-2.19,6.35-6.47,8.41-12.83,6.18-5.65-3.97-6.66-8.88-3.01-14.73,1.55-1.69,3.39-2.86,5.54-3.49Z" style="fill: #29ade3; fill-rule: evenodd; isolation: isolate; opacity: .98;"/>
    <path d="m496.57,211.73v7.29c-.22.69-.64,1.27-1.27,1.74-1.79.16-3.59.21-5.39.16.05,9.08,0,18.17-.16,27.25-.32.56-.8.93-1.43,1.11-3.06.21-6.12.21-9.19,0-.58-.16-.95-.53-1.11-1.11-.16-9.08-.21-18.17-.16-27.25-1.73.13-3.42-.03-5.07-.48-.22-.34-.38-.71-.48-1.11-.21-2.75-.21-5.49,0-8.24.12-.29.28-.55.48-.79,1.65-.44,3.34-.6,5.07-.48-.1-2.45,0-4.88.32-7.29,1.69-1.01,3.49-1.8,5.39-2.38,1.38-.57,2.8-.94,4.28-1.11.74-.06,1.38.15,1.9.63.16,3.38.21,6.76.16,10.14,1.8-.05,3.59,0,5.39.16.62.48,1.05,1.06,1.27,1.74Z" style="fill: #29ade3; fill-rule: evenodd; isolation: isolate; opacity: .99;"/>
    <path d="m264.32,203.17c7.71-.05,15.42,0,23.13.16,9.42,2.24,13.7,8.21,12.83,17.9-1.05,4.31-3.42,7.69-7.13,10.14,2.72,5.33,5.52,10.61,8.4,15.84.26.66.2,1.29-.16,1.9-4.22.42-8.45.42-12.67,0-2.64-4.86-5.28-9.72-7.92-14.57-1.57-.31-3.15-.42-4.75-.32.1,4.87,0,9.73-.32,14.57-.17.22-.38.38-.63.48-3.59.21-7.18.21-10.77,0l-.48-.48c-.21-15-.21-30,0-44.99.23-.17.39-.38.48-.63Zm11.72,9.82c2.77-.13,5.52.03,8.24.48,3.42,1.82,4.32,4.52,2.69,8.08-1,1.56-2.42,2.36-4.28,2.38-2.22.16-4.43.21-6.65.16v-11.09Z" style="fill: #29ade3; fill-rule: evenodd; isolation: isolate; opacity: .97;"/>
    <path d="m325.78,250.07h-5.7c-12.64-2.99-18.4-11.02-17.27-24.08,2.55-10.55,9.25-16.14,20.12-16.79,9.09.38,15.48,4.71,19.17,12.99,3.14,10.56.23,18.95-8.71,25.19-2.43,1.32-4.96,2.22-7.6,2.69Zm-4.75-30.1c6.55-.16,10.04,3.06,10.46,9.66-.14,5.74-3.05,8.96-8.71,9.66-5.63-.73-8.53-3.95-8.71-9.66.23-4.82,2.56-8.04,6.97-9.66Z" style="fill: #29ade3; fill-rule: evenodd; isolation: isolate; opacity: .97;"/>
    <path d="m417.99,250.07h-4.44c-11.41-2.12-17.64-8.99-18.69-20.6.3-8.38,4.11-14.55,11.41-18.54,9.97-3.64,18.16-1.27,24.56,7.13,2.67,4.32,3.51,8.97,2.53,13.94-.32.56-.79.93-1.43,1.11-8.45.05-16.9.21-25.35.48.75,2.92,2.55,4.87,5.39,5.86,2.81.73,5.56.52,8.24-.63,1.46-.88,2.93-1.68,4.44-2.38.57.02,1.1.18,1.58.48,1.32,1.53,2.64,3.06,3.96,4.59.21.74.21,1.48,0,2.22-3.41,3.42-7.48,5.53-12.2,6.34Zm-5.07-31.05c4.22-.37,7.28,1.32,9.19,5.07-4.96.42-9.93.42-14.89,0,1.39-2.28,3.3-3.97,5.7-5.07Z" style="fill: #29ade3; fill-rule: evenodd; isolation: isolate; opacity: .98;"/>
    <path d="m457.59,209.19c5.09-.33,9.47,1.26,13.15,4.75.57.83.57,1.68,0,2.53-.95,1.69-1.9,3.38-2.85,5.07-.97,1.15-2.18,1.52-3.64,1.11-4.91-4.15-8.98-3.46-12.2,2.06-.11,7.92-.21,15.84-.32,23.76-.29.38-.66.64-1.11.79-3.06.21-6.13.21-9.19,0-.57-.25-1.04-.62-1.43-1.11-.21-12.25-.21-24.5,0-36.75.26-.69.74-1.16,1.43-1.43,2.22-.21,4.44-.21,6.65,0,1.09,1.26,1.88,2.68,2.38,4.28,1.89-2.44,4.27-4.13,7.13-5.07Z" style="fill: #29ade3; fill-rule: evenodd; isolation: isolate; opacity: .97;"/>
  </g>
  <g id="Logo">
    <g>
      <path d="m215.09,66.6c-9.59-13.25-11.69-35.9-4.23-50.92,2.44-4.92,7.95-7.75,12.22-11.27,1.62-1.34,3.68-1.92,5.8-2.67-.94,2.94-2.15,5.7-3.53,8.65-.71,4.94-1.82,9.71-1.61,14.42.2,4.63,1.72,9.18,2.56,14.04-.86,1.81-1.8,3.27-2.34,4.91-2.18,6.54-4.17,13.17-6.4,19.69-.43,1.24-1.61,2.11-2.44,3.16h0Z" style="fill: #0c439a;"/>
      <path d="m204.92,34.83c.03,2.19.06,4.37-.09,7,.01,1.09.2,1.74.4,2.39.31,1.96.63,3.92.79,6.28.07.82.29,1.23.5,1.65.45,1.28.89,2.56,1.2,4.26-.17,1.45,0,2.57-.3,3.49-2.51,7.76-5.07,15.5-7.71,23.2-.24.71-1.17,1.09-1.78,1.63-7.55-22.49-4.96-43.34,7.53-62.77.78-.1,1.13-.09,1.48-.08-.32,1.74-.64,3.49-1.22,5.56-.25.76-.25,1.2-.24,1.64-.02.55-.05,1.11-.35,2-.25,1.48-.23,2.64-.2,3.78h0Z" style="fill: #0c439a;"/>
      <path d="m225.51,10.2c1.21-2.76,2.42-5.53,3.57-8.56.86-.63,1.76-.98,3.44-1.64-1.17,2.51-2.01,4.19-2.75,5.92-4.29,10.11-3.93,26.27,5.58,37.52,5.8,6.86,12.84,10.99,20.07,14.96,6.93,3.8,14.03,7.23,20.68,11.63,5.46,3.61,8.5,9.87,10.27,17.1,1.29,5.27.09,9.33-2.98,12.99-.64.76-1.31,1.49-2.13,2.02,1.7-7.48-.08-13.87-3.6-20.09-2.68-3.03-5.27-5.84-7.98-8.84-2.74-2.04-5.36-3.88-7.94-5.99.7-1.99.4-2.81-1.22-3.75-7.58-4.37-15.49-8.24-22.43-13.78-9.71-7.75-14.65-19.04-13.19-33.47.2-2,.4-4.01.6-6.02h0Z" style="fill: rgba(227, 74, 148, .72);"/>
      <path d="m215.13,66.84c.79-1.29,1.97-2.16,2.4-3.4,2.23-6.52,4.22-13.14,6.4-19.69.55-1.64,1.48-3.1,2.47-4.69.89.99,1.49,2.07,2.21,3.03,2.8,3.77,5.64,7.5,8.43,11.52-2.33,7.27-4.55,14.3-6.96,21.24-.61,1.74-1.87,3.14-2.84,4.7-4.02-4.16-8.04-8.31-12.1-12.71h0Z" style="fill: #0e4f9f;"/>
      <path d="m227.34,79.77c.86-1.77,2.13-3.18,2.73-4.92,2.42-6.93,4.63-13.96,7.18-21.17,4.35,2.59,8.44,5.38,12.5,8.46-2.67,8.27-5.26,16.26-7.98,24.2-.27.81-1.25,1.26-1.9,1.89-4.14-2.75-8.29-5.5-12.54-8.47h0Z" style="fill: #1460a6;"/>
      <path d="m269.8,73.4c2.59,2.81,5.18,5.61,7.65,8.77-.54,1-1.1,1.57-1.35,2.3-2.31,6.83-4.62,13.65-6.79,20.53-.86,2.73-1.38,5.61-2.05,8.42-3.7,1.97-7.4,3.94-11.55,6.15,0-3.01,0-5.36.25-8.06,1.7-3.78,3.34-7.11,4.57-10.64,3.19-9.11,6.2-18.31,9.27-27.48Z" style="fill: #2498bd;"/>
      <path d="m269.68,73.2c-2.96,9.36-5.97,18.56-9.16,27.67-1.23,3.53-2.87,6.86-4.53,10.31-1.51-5.45-3.55-10.45-6.8-14.81.81-.86,1.8-1.32,2.07-2.11,2.96-8.96,5.82-17.97,8.92-26.97.65.05,1.09.12,1.51.18,2.62,1.84,5.25,3.69,7.99,5.73h0Z" style="fill: #1d84b5;"/>
      <path d="m197.97,84.97c.58-.8,1.5-1.18,1.74-1.89,2.64-7.7,5.2-15.43,7.71-23.2.3-.92.12-2.04.3-3.23,2.97,5.18,5.81,10.53,8.52,16.22-.45.93-.84,1.47-1.06,2.1-2.9,8.43-5.77,16.87-8.66,25.31-2.84-5.02-5.69-10.03-8.56-15.31h0Z" style="fill: #0e4f9f;"/>
      <path d="m259.97,67.32c-2.88,9-5.74,18.01-8.7,26.97-.26.79-1.27,1.24-2.16,1.88-3.16-2.47-6.08-4.99-9.11-7.71.54-.83,1.51-1.3,1.79-2.1,2.71-7.94,5.31-15.94,8.19-24.14,3.5,1.55,6.75,3.32,10,5.1h0Z" style="fill: #1972ad;"/>
      <path d="m206.6,100.48c2.82-8.64,5.69-17.09,8.59-25.52.22-.63.61-1.17,1.12-1.87,2.66,2.28,5.13,4.66,7.76,7.47-2.61,9.03-5.38,17.66-8.22,26.23-.24.72-1.07,1.16-1.63,1.73-2.52-2.62-5.04-5.23-7.62-8.05h0Z" style="fill: #1460a6;"/>
      <path d="m232.8,86.57c2.96,2.01,5.92,4.01,8.96,6.5-2.75,9.01-5.58,17.55-8.4,26.09-3.16-1.23-6.32-2.45-9.58-4.14,2.94-9.8,5.98-19.12,9.02-28.45h0Z" style="fill: #1d84b5;"/>
      <path d="m232.67,86.38c-2.9,9.52-5.95,18.84-9.02,28.45-3.09-1.77-6.14-3.81-9.3-6.08.45-.79,1.28-1.23,1.52-1.94,2.85-8.58,5.61-17.21,8.4-26.09,2.76,1.65,5.51,3.56,8.4,5.66Z" style="fill: #1972ad;"/>
      <path d="m233.55,119.31c2.63-8.7,5.45-17.23,8.32-26.04,2.4,2.23,4.76,4.74,7.17,7.73-1.97,6.88-3.99,13.28-6.01,19.67-3.09-.4-6.18-.8-9.48-1.35Z" style="fill: #2498bd;"/>
      <path d="m267.47,113.41c.46-2.79.97-5.67,1.84-8.4,2.17-6.89,4.48-13.7,6.79-20.53.25-.73.81-1.31,1.44-2.08,3.64,5.87,5.42,12.26,3.54,19.84-.02.3.04.34-.1.35-.24.21-.35.42-.47.63-4.27,3.39-8.55,6.77-13.04,10.19h0Z" style="fill: #2caac4;"/>
      <path d="m239.44,29.1c-2.08-4.27-2.76-8.7-.71-13.56,5.14,5.45,9.9,11.07,14.48,16.84-1.43.52-2.69.96-3.96,1.21-3.99.79-6.82-2.16-9.82-4.5h0Z" style="fill: #0c439a;"/>
      <path d="m243.23,120.8c1.81-6.52,3.83-12.91,5.89-19.58,3.99,4.48,5.27,10.3,4.61,16.76-.09.92-1.18,2.29-1.92,2.4-2.76.42-5.57.41-8.57.42h0Z" style="fill: #2caac4;"/>
      <path d="m253.39,32.22c-4.76-5.61-9.52-11.22-14.49-16.87.72-1.61,1.66-3.18,2.93-4.65,1.38.95,2.54,1.66,3.45,2.69,4.2,4.72,8.32,9.53,12.43,14.53-.32.76-.6,1.29-1.06,1.93-1.2.86-2.23,1.61-3.26,2.37h0Z" style="fill: #1460a6;"/>
      <path d="m257.75,27.69c-4.16-4.78-8.28-9.59-12.48-14.31-.91-1.03-2.07-1.74-3.26-2.76,1.71-1.1,3.55-2.02,5.66-2.68,4.1,4.62,7.93,8.95,11.8,13.57-.55,2.25-1.13,4.21-1.71,6.18h0Z" style="fill: #1d84b5;"/>
      <path d="m259.42,21.23c-3.83-4.34-7.66-8.68-11.54-13.24,5.07-.83,8.75,2.06,11.44,9.25.09,1.68.09,2.83.09,3.99Z" style="fill: #2caac4;"/>
      <path d="m253.21,32.39c1.2-.93,2.23-1.68,3.45-2.32.2.41.19.71.19,1-.76.77-1.51,1.54-2.65,2.36-.58.26-.78.46-.97.66,0,0-.11.11-.36.1-.44.15-.63.32-.81.48-5.24,1.97-9.31-.19-12.61-5.33,3,2.1,5.81,5.05,9.81,4.26,1.27-.25,2.52-.69,3.96-1.21h0Z" style="fill: #a62f73;"/>
      <path d="m257.04,31.01c-.2-.24-.19-.53-.2-1.05.25-.75.53-1.29.86-2.05.63-2.19,1.22-4.17,1.76-6.41-.04-1.43-.03-2.59-.05-4,1.84,4.88.88,9.4-2.36,13.51h0Z" style="fill: #e34a94;"/>
      <path d="m207.08,21.67c-.48.17-.84.16-1.45.13.4-1.06,1.07-2.09,1.74-3.12.17.12.35.24.52.35-.22.82-.45,1.64-.81,2.64Z" style="fill: #0e4f9f;"/>
      <path d="m205.02,34.6c-.13-.92-.15-2.06,0-3.3.16.97.12,2.02,0,3.3Z" style="fill: #0e4f9f;"/>
      <path d="m205.28,43.99c-.24-.42-.43-1.06-.48-1.83.27.45.4,1.03.48,1.83Z" style="fill: #0e4f9f;"/>
      <path d="m205.59,28.9c-.12-.3-.12-.74,0-1.23.13.33.12.71,0,1.23Z" style="fill: #0e4f9f;"/>
      <path d="m206.55,51.94c-.24-.21-.45-.63-.53-1.15.27.24.42.6.53,1.15Z" style="fill: #0e4f9f;"/>
      <path d="m253.42,34.08c0-.19.19-.4.58-.61,0,.19-.19.4-.58.61Z" style="fill: #e34a94;"/>
      <path d="m280.64,103.15c-.02-.14.09-.35.35-.59.08.19-.04.38-.35.59Z" style="fill: #e34a94;"/>
      <path d="m252.23,34.68c0-.18.19-.35.56-.51,0,.18-.19.35-.56.51Z" style="fill: #e34a94;"/>
      <path d="m260.18,67.31c-3.47-1.77-6.71-3.54-10.18-5.38-4.32-2.87-8.41-5.66-12.71-8.52-3.04-3.81-5.88-7.54-8.68-11.31-.72-.96-1.32-2.04-2.1-3.29-1.06-4.81-2.59-9.37-2.78-14-.2-4.71.91-9.49,1.61-14.42-.02,1.82-.22,3.83-.43,5.84-1.46,14.43,3.48,25.72,13.19,33.47,6.95,5.54,14.85,9.41,22.43,13.78,1.62.93,1.92,1.75,1.22,3.75-.48.21-.91.15-1.56.09Z" style="fill: #a62f73;"/>
    </g>
  </g>
  <g id="Hopeshare">
    <path d="m371.65,139.89c5.83.23,11.39.1,16.88.81,4.37.57,8.06,3.28,9.99,8.56,2.36,6.45.54,11.52-5.16,15.48,2.58,5.27,5.17,10.55,7.75,15.83,1.22,2.5.72,3.72-1.71,3.59-1.1-.06-2.25-.2-3.32.02-4.31.87-7.21-1.11-8.57-6.29-2.17-8.27-6.96-10.23-13.75-8.22,0,3.49-.06,7.32.02,11.14.04,2.34-.62,3.43-2.63,3.37-10.12-.3-8.26,1.89-8.39-10.05-.11-9.99.06-19.98-.06-29.98-.04-3.27.85-4.6,3.51-4.29,1.7.19,3.42.04,5.44.04h0Zm13.99,18.62c1.79-1.08,2.83-3,1.88-5.13-.66-1.47-2.3-2.96-3.62-3.13-3.25-.45-6.57-.15-9.98-.15v9.15c2.87,0,5.58.05,8.28-.02.99-.02,1.99-.34,3.45-.71h-.01Z" style="fill: #060707;"/>
    <path d="m193.75,162.93c0-6.62.08-12.87-.04-19.11-.06-2.9.78-3.99,3.16-3.97,9.38.11,18.75.11,28.13,0,2.36-.03,3.39,1.02,3.16,3.94-.07.99-.09,2.01,0,3,.27,3.01-.9,3.92-3.19,3.88-6.63-.11-13.27-.04-20.06-.04v5.75c4.81,0,9.52-.02,14.23,0,3.38.02,3.36.21,3.5,5.79.08,3.3-.37,5.12-3.6,4.88-4.61-.35-9.25-.09-14.09-.09v6.52h17.71c5.64,0,5.56,0,5.53,6.98-.01,2.74-.76,3.76-3,3.74-9.48-.1-18.95-.12-28.43,0-2.49.04-3.11-1.24-3.05-4.04.12-5.62.04-11.24.04-17.23h0Z" style="fill: #060707;"/>
    <path d="m411.1,139.89c8.96,0,17.63.11,26.3-.06,2.76-.05,3.77,1.01,3.7,4.49-.14,6.3,0,6.31-5.17,6.31h-18.06v5.75c4.61,0,9.3-.09,14,.07,1.15.04,3.21.78,3.27,1.44.27,2.76.04,5.62-.26,8.4-.04.35-1.6.62-2.46.63-4.82.06-9.64.03-14.61.03v6.52c6.47,0,12.79-.07,19.11.05,1.3.02,3.6.51,3.69,1.18.4,2.73.21,5.62,0,8.44-.03.41-1.33.95-2.05.95-9.78.06-19.56,0-29.34.07-2.01.02-2.6-1.14-2.59-3.45.04-12.37.11-24.73-.03-37.09-.04-4.23,2.08-3.78,4.52-3.74h-.02Z" style="fill: #060707;"/>
    <path d="m133.5,140.85c8.68,4.33,12.65,12.65,11.7,24.13-.86,10.39-6.12,17.51-14.87,19.11-3.91.72-8.07.72-11.98-.07-9.47-1.93-14.69-10.39-14.56-22.53.12-11.63,5.76-20.15,15.16-21.5,4.69-.68,9.54.44,14.54.86h0Zm-5.14,9.56c-6.22-2.17-11.18.31-12.38,6.75-.58,3.15-.47,6.68,0,9.9.58,3.99,2.95,6.55,6.21,7.16,3.45.65,6.83.36,9.38-3.33,3.16-4.57,3.24-17.28-3.22-20.49h0Z" style="fill: #060707;"/>
    <path d="m242.19,170.13c2.74,4.2,9.82,5.82,13.35,3.12.69-.53,1.61-1.84,1.48-2.47-.22-.96-1.17-2.11-1.97-2.34-3.13-.91-6.33-1.43-9.48-2.24-2.16-.55-4.35-1.14-6.41-2.07-3.63-1.65-6.28-4.54-6.57-9.7-.31-5.44,1.65-9.45,5.43-11.98,4.87-3.27,10.2-3.9,15.56-3.01,2.84.47,5.75,1.5,8.3,3.08,1.87,1.15,3.58,3.33,4.69,5.56,2.28,4.59,1.1,6.82-3.22,6.84-2.97,0-5.86.51-8-3.41-1.37-2.51-7.52-2.64-9.69-.79-.66.56-1.41,1.77-1.35,2.6.06.8,1.02,1.94,1.74,2.14,3.33.94,6.74,1.45,10.06,2.41,2.63.75,5.35,1.53,7.73,3,5.84,3.63,6.72,12.55,2,18.19-6.62,7.95-25.11,7.86-31.59-.21-.83-1.04-1.54-2.33-2.03-3.66-1.67-4.62-.71-6.47,3.38-6.32,2.15.08,4.29.66,6.58,1.25h.01Z" style="fill: #060707;"/>
    <path d="m73.97,167.71c-1.76-.22-2.55.26-2.47,2.4.12,3.49-.04,7,.06,10.49.07,2.5-.58,3.65-2.75,3.58-9.94-.31-8.11,1.79-8.23-9.87-.11-10.12.05-20.24-.06-30.35-.04-3.12.85-4.18,3.35-4.1,8.91.28,7.56-1.53,7.67,9.55.02,2.47,0,4.93,0,7.55h14.96c0-4.65.06-9.12-.02-13.58-.05-2.59.81-3.55,2.88-3.5,9.56.23,8.03-1.58,8.11,9.75.07,10.12-.07,20.24.07,30.35.05,3.34-.9,4.28-3.51,4.24-7.52-.12-7.52,0-7.52-9.29v-7.22h-12.54Z" style="fill: #040505;"/>
    <path d="m300.15,169.78c-.5-.94-.99-1.97-1.5-1.99-4.32-.13-8.65-.08-13.43-.08,0,4.41-.09,8.6.03,12.78.09,2.78-.76,3.76-3,3.7-9.58-.3-7.89,1.73-8-9.79-.09-10.12.04-20.24-.06-30.35-.03-3,.68-4.27,3.27-4.19,9.04.28,7.63-1.45,7.75,9.47.02,2.47,0,4.95,0,7.61h14.93c0-4.54.06-9-.02-13.47-.05-2.54.7-3.64,2.82-3.59,9.62.24,8.09-1.63,8.17,9.64.07,10.24-.04,20.48.06,30.72.03,2.88-.68,3.96-3.1,3.96-7.92.02-7.92.13-7.92-9.56v-4.86h0Z" style="fill: #040505;"/>
    <path d="m347.37,183.46c-1.32-6.99-5.21-7.74-9.84-6.98-1.08.18-2.22.12-3.32,0-3.48-.37-6.56-.25-7.41,5.32-.15.98-1.89,2.05-2.98,2.24-2.07.35-4.22.02-6.33.12-2.2.1-2.71-.92-1.81-3.38,1.79-4.88,3.51-9.8,5.26-14.7,2.69-7.52,5.45-15,8.03-22.58.92-2.68,2.2-3.76,4.58-3.66,12.4.51,8.83-2.72,14.06,11.39,3.57,9.63,6.96,19.35,10.39,29.06,1.23,3.46,1.02,3.87-2.08,3.83-2.79-.05-5.58-.31-8.55-.67h0Zm-6.56-18.26c-1.22-3.89-2.42-7.78-3.96-12.67-1.73,5.09-3.11,9.13-4.53,13.31,3.01,0,5.69,0,8.48-.65h0Z" style="fill: #040505;"/>
    <path d="m185.29,145.7c6.09,9.45,3.49,21.37-5.58,24.76-3.76,1.41-7.93,1.24-11.92,1.67-1.58.17-3.19.03-5.19.03,0,3.1-.06,5.92.02,8.75.07,2.42-.76,3.33-2.7,3.27-9.94-.29-8.2,1.82-8.31-9.76-.09-9.98.09-19.97-.07-29.95-.06-3.66.96-4.8,3.86-4.64,6.93.39,13.92-.02,20.8.87,3.08.4,5.97,3.13,9.1,4.99m-16.68,4.37h-5.79v12.45c3.74-.3,7.26-.34,10.7-.95,2.2-.39,3.37-2.54,3.39-5.4.02-3.03-1.25-4.99-3.54-5.71-1.34-.41-2.78-.28-4.76-.39h0Z" style="fill: #060707;"/>
  </g>
</svg>