<svg width="45" height="45" viewBox="0 0 45 45" fill="none" xmlns="http://www.w3.org/2000/svg">
<path d="M33.9785 22.9043C35.6095 22.9043 36.9316 21.5821 36.9316 19.9512C36.9316 18.3202 35.6095 16.998 33.9785 16.998C32.3476 16.998 31.0254 18.3202 31.0254 19.9512C31.0254 21.5821 32.3476 22.9043 33.9785 22.9043Z" fill="#585858"/>
<path d="M30.3398 30.252C31.9708 30.252 33.293 28.9298 33.293 27.2988C33.293 25.6679 31.9708 24.3457 30.3398 24.3457C28.7089 24.3457 27.3867 25.6679 27.3867 27.2988C27.3867 28.9298 28.7089 30.252 30.3398 30.252Z" fill="#585858"/>
<path d="M25.6289 30.7969H22.3066H18.9844C16.9629 30.7969 15.6973 32.4668 15.6973 34.5586V39.709H17.9648V35.1562C17.9648 34.9453 18.1406 34.8047 18.3164 34.8047C18.5273 34.8047 18.668 34.9453 18.668 35.1562V39.6914H25.9629V35.1562C25.9629 34.9453 26.1387 34.8047 26.3145 34.8047C26.5254 34.8047 26.666 34.9805 26.666 35.1562V39.6914H28.9336V34.5762C28.9688 32.4668 27.6855 30.7969 25.6289 30.7969Z" fill="#585858"/>
<path d="M26.4551 22.9043C28.086 22.9043 29.4082 21.5821 29.4082 19.9512C29.4082 18.3202 28.086 16.998 26.4551 16.998C24.8241 16.998 23.502 18.3202 23.502 19.9512C23.502 21.5821 24.8241 22.9043 26.4551 22.9043Z" fill="#585858"/>
<path d="M35.1387 27.2988C35.1387 28.9336 36.457 30.252 38.0918 30.252C39.7266 30.252 41.0449 28.9336 41.0449 27.2988C41.0449 25.6641 39.7266 24.3457 38.0918 24.3457C36.457 24.3457 35.1387 25.6641 35.1387 27.2988Z" fill="#585858"/>
<path d="M34.8398 30.7969C32.8184 30.7969 31.5527 32.4668 31.5527 34.5586V39.709H33.8203V35.1562C33.8203 34.9453 33.9961 34.8047 34.1719 34.8047C34.3828 34.8047 34.5234 34.9453 34.5234 35.1562V39.6914H41.8184V35.1562C41.8184 34.9453 41.9941 34.8047 42.1699 34.8047C42.3809 34.8047 42.5215 34.9805 42.5215 35.1562V39.6914H44.7891V34.5762C44.8242 32.4492 43.541 30.7793 41.502 30.7793H38.1797H34.8398V30.7969Z" fill="#585858"/>
<path d="M7.13672 30.252C8.76768 30.252 10.0898 28.9298 10.0898 27.2988C10.0898 25.6679 8.76768 24.3457 7.13672 24.3457C5.50575 24.3457 4.18359 25.6679 4.18359 27.2988C4.18359 28.9298 5.50575 30.252 7.13672 30.252Z" fill="#585858"/>
<path d="M2.74219 39.6914V35.1562C2.74219 34.9453 2.91797 34.8047 3.09375 34.8047C3.30469 34.8047 3.44531 34.9453 3.44531 35.1562V39.6914H10.7402V35.1562C10.7402 34.9453 10.916 34.8047 11.0918 34.8047C11.3027 34.8047 11.4434 34.9805 11.4434 35.1562V39.6914H13.7109V34.5762C13.7461 32.4492 12.4629 30.7793 10.4238 30.7793H7.10156H3.7793C1.75781 30.7793 0.492188 32.4492 0.492188 34.541V39.6914H2.74219Z" fill="#585858"/>
<path d="M19.3535 27.2988C19.3535 28.9336 20.6719 30.252 22.3066 30.252C23.9414 30.252 25.2598 28.9336 25.2598 27.2988C25.2598 25.6641 23.9414 24.3457 22.3066 24.3457C20.6719 24.3457 19.3535 25.6641 19.3535 27.2988Z" fill="#585858"/>
<path d="M10.916 22.9043C12.547 22.9043 13.8691 21.5821 13.8691 19.9512C13.8691 18.3202 12.547 16.998 10.916 16.998C9.28505 16.998 7.96289 18.3202 7.96289 19.9512C7.96289 21.5821 9.28505 22.9043 10.916 22.9043Z" fill="#585858"/>
<path d="M18.8965 22.9043C20.5275 22.9043 21.8496 21.5821 21.8496 19.9512C21.8496 18.3202 20.5275 16.998 18.8965 16.998C17.2655 16.998 15.9434 18.3202 15.9434 19.9512C15.9434 21.5821 17.2655 22.9043 18.8965 22.9043Z" fill="#585858"/>
<path d="M30.1465 16.5938C31.7775 16.5938 33.0996 15.2716 33.0996 13.6406C33.0996 12.0097 31.7775 10.6875 30.1465 10.6875C28.5155 10.6875 27.1934 12.0097 27.1934 13.6406C27.1934 15.2716 28.5155 16.5938 30.1465 16.5938Z" fill="#585858"/>
<path d="M14.6074 16.5938C16.2384 16.5938 17.5605 15.2716 17.5605 13.6406C17.5605 12.0097 16.2384 10.6875 14.6074 10.6875C12.9765 10.6875 11.6543 12.0097 11.6543 13.6406C11.6543 15.2716 12.9765 16.5938 14.6074 16.5938Z" fill="#585858"/>
<path d="M22.5703 16.5938C24.2013 16.5938 25.5234 15.2716 25.5234 13.6406C25.5234 12.0097 24.2013 10.6875 22.5703 10.6875C20.9393 10.6875 19.6172 12.0097 19.6172 13.6406C19.6172 15.2716 20.9393 16.5938 22.5703 16.5938Z" fill="#585858"/>
<path d="M14.9238 30.252C16.5548 30.252 17.877 28.9298 17.877 27.2988C17.877 25.6679 16.5548 24.3457 14.9238 24.3457C13.2929 24.3457 11.9707 25.6679 11.9707 27.2988C11.9707 28.9298 13.2929 30.252 14.9238 30.252Z" fill="#585858"/>
</svg>
