<svg width="20" height="20" viewBox="0 0 20 20" fill="none" xmlns="http://www.w3.org/2000/svg">
<g id="Frame">
<g id="SVGRepo_bgCarrier">
<path id="Vector" d="M10 16.8274C11.7448 17.0204 13.5401 17.8035 15.1321 17.0637C16.8418 16.269 18.345 14.6704 18.6456 12.8091C18.9375 11.0018 17.4619 9.47474 16.6203 7.84895C15.935 6.52522 15.2528 5.27459 14.1994 4.22004C12.9533 2.97267 11.7571 1.07577 10 1.22171C8.22352 1.36926 7.45617 3.53962 6.27862 4.87794C5.39649 5.8805 4.51237 6.81791 3.99342 8.04834C3.42986 9.38453 2.89211 10.7941 3.1843 12.2146C3.49536 13.7267 4.35313 15.1472 5.63168 16.0125C6.88915 16.8635 8.49084 16.6604 10 16.8274Z" fill="#ADFFD9"/>
</g>
<g id="SVGRepo_iconCarrier">
<g id="Shopicon">
<path id="Vector_2" d="M15.6347 9.12986L12.0833 5.57882V4.44445C12.0833 3.68056 11.4583 3.05556 10.6944 3.05556H5.13889C4.375 3.05556 3.75 3.68056 3.75 4.44445V12.7622C3.75 13.526 4.375 14.151 5.13889 14.151H6.525L6.56701 14.4285C6.78264 15.8538 7.96007 16.9288 9.3059 16.9288H16.2503V11.026C16.25 9.82049 15.7833 9.27327 15.6347 9.12986ZM10.6944 4.8559C10.6257 4.84931 10.5563 4.84549 10.4861 4.84549C9.92882 4.84549 9.40556 5.06181 9.01389 5.45347C8.62083 5.8441 8.40347 6.36632 8.40278 6.92361C8.40174 7.48299 8.6184 8.00799 9.0125 8.40243L10.6944 10.0844V12.7622H8.26389V4.44445H10.6944V4.8559ZM5.13889 4.44445H6.18056V12.7622H5.13889V4.44445ZM14.8611 15.5399H9.30556C8.64063 15.5399 8.05382 14.9729 7.93993 14.2208L7.92951 14.151H10.6944C11.4583 14.151 12.0833 13.526 12.0833 12.7622V11.4733L12.8194 12.2094L13.8017 11.2274L12.1826 9.60834L10.3472 7.77327L9.99444 7.42049C9.86319 7.28924 9.79132 7.11354 9.79167 6.92604C9.79201 6.74063 9.86354 6.56736 9.99444 6.43715C10.1413 6.29028 10.35 6.22882 10.5514 6.24688C10.7094 6.26077 10.8628 6.32222 10.9778 6.43715L12.4306 7.88993L14.6583 10.1177L14.6333 10.1101L14.6712 10.1351C14.7167 10.2035 14.8611 10.4642 14.8611 11.026V15.5399Z" fill="black"/>
</g>
</g>
</g>
</svg>
