<svg width="80" height="80" viewBox="0 0 80 80" fill="none" xmlns="http://www.w3.org/2000/svg">
<path d="M60.4063 40.7188C63.3057 40.7188 65.6563 38.3682 65.6563 35.4688C65.6563 32.5693 63.3057 30.2188 60.4063 30.2188C57.5068 30.2188 55.1562 32.5693 55.1562 35.4688C55.1562 38.3682 57.5068 40.7188 60.4063 40.7188Z" fill="#F9F9F9"/>
<path d="M53.9375 53.7813C56.837 53.7813 59.1875 51.4307 59.1875 48.5313C59.1875 45.6318 56.837 43.2812 53.9375 43.2812C51.038 43.2812 48.6875 45.6318 48.6875 48.5313C48.6875 51.4307 51.038 53.7813 53.9375 53.7813Z" fill="#F9F9F9"/>
<path d="M45.5625 54.75H39.6562H33.75C30.1562 54.75 27.9062 57.7188 27.9062 61.4375V70.5937H31.9375V62.5C31.9375 62.125 32.25 61.875 32.5625 61.875C32.9375 61.875 33.1875 62.125 33.1875 62.5V70.5625H46.1562V62.5C46.1562 62.125 46.4687 61.875 46.7812 61.875C47.1562 61.875 47.4062 62.1875 47.4062 62.5V70.5625H51.4375V61.4687C51.5 57.7187 49.2188 54.75 45.5625 54.75Z" fill="#F9F9F9"/>
<path d="M47.0313 40.7188C49.9307 40.7188 52.2813 38.3682 52.2813 35.4688C52.2813 32.5693 49.9307 30.2188 47.0313 30.2188C44.1318 30.2188 41.7812 32.5693 41.7812 35.4688C41.7812 38.3682 44.1318 40.7188 47.0313 40.7188Z" fill="#F9F9F9"/>
<path d="M62.4688 48.5313C62.4688 51.4375 64.8125 53.7813 67.7188 53.7813C70.625 53.7813 72.9688 51.4375 72.9688 48.5313C72.9688 45.625 70.625 43.2812 67.7188 43.2812C64.8125 43.2812 62.4688 45.625 62.4688 48.5313Z" fill="#F9F9F9"/>
<path d="M61.9375 54.75C58.3437 54.75 56.0938 57.7188 56.0938 61.4375V70.5937H60.125V62.5C60.125 62.125 60.4375 61.875 60.75 61.875C61.125 61.875 61.375 62.125 61.375 62.5V70.5625H74.3437V62.5C74.3437 62.125 74.6562 61.875 74.9687 61.875C75.3437 61.875 75.5937 62.1875 75.5937 62.5V70.5625H79.625V61.4687C79.6875 57.6875 77.4063 54.7188 73.7813 54.7188H67.875H61.9375V54.75Z" fill="#F9F9F9"/>
<path d="M12.6875 53.7813C15.587 53.7813 17.9375 51.4307 17.9375 48.5313C17.9375 45.6318 15.587 43.2812 12.6875 43.2812C9.788 43.2812 7.4375 45.6318 7.4375 48.5313C7.4375 51.4307 9.788 53.7813 12.6875 53.7813Z" fill="#F9F9F9"/>
<path d="M4.875 70.5625V62.5C4.875 62.125 5.1875 61.875 5.5 61.875C5.875 61.875 6.125 62.125 6.125 62.5V70.5625H19.0938V62.5C19.0938 62.125 19.4062 61.875 19.7188 61.875C20.0938 61.875 20.3438 62.1875 20.3438 62.5V70.5625H24.375V61.4687C24.4375 57.6875 22.1562 54.7188 18.5312 54.7188H12.625H6.71875C3.125 54.7188 0.875 57.6875 0.875 61.4062V70.5625H4.875Z" fill="#F9F9F9"/>
<path d="M34.4062 48.5313C34.4062 51.4375 36.75 53.7813 39.6563 53.7813C42.5625 53.7813 44.9062 51.4375 44.9062 48.5313C44.9062 45.625 42.5625 43.2812 39.6563 43.2812C36.75 43.2812 34.4062 45.625 34.4062 48.5313Z" fill="#F9F9F9"/>
<path d="M19.4062 40.7188C22.3057 40.7188 24.6563 38.3682 24.6563 35.4688C24.6563 32.5693 22.3057 30.2188 19.4062 30.2188C16.5068 30.2188 14.1562 32.5693 14.1562 35.4688C14.1562 38.3682 16.5068 40.7188 19.4062 40.7188Z" fill="#F9F9F9"/>
<path d="M33.5938 40.7188C36.4932 40.7188 38.8438 38.3682 38.8438 35.4688C38.8438 32.5693 36.4932 30.2188 33.5938 30.2188C30.6943 30.2188 28.3438 32.5693 28.3438 35.4688C28.3438 38.3682 30.6943 40.7188 33.5938 40.7188Z" fill="#F9F9F9"/>
<path d="M53.5938 29.5C56.4932 29.5 58.8438 27.1495 58.8438 24.25C58.8438 21.3505 56.4932 19 53.5938 19C50.6943 19 48.3438 21.3505 48.3438 24.25C48.3438 27.1495 50.6943 29.5 53.5938 29.5Z" fill="#F9F9F9"/>
<path d="M25.9687 29.5C28.8682 29.5 31.2188 27.1495 31.2188 24.25C31.2188 21.3505 28.8682 19 25.9687 19C23.0693 19 20.7188 21.3505 20.7188 24.25C20.7188 27.1495 23.0693 29.5 25.9687 29.5Z" fill="#F9F9F9"/>
<path d="M40.125 29.5C43.0245 29.5 45.375 27.1495 45.375 24.25C45.375 21.3505 43.0245 19 40.125 19C37.2255 19 34.875 21.3505 34.875 24.25C34.875 27.1495 37.2255 29.5 40.125 29.5Z" fill="#F9F9F9"/>
<path d="M26.5313 53.7813C29.4307 53.7813 31.7812 51.4307 31.7812 48.5313C31.7812 45.6318 29.4307 43.2812 26.5313 43.2812C23.6318 43.2812 21.2812 45.6318 21.2812 48.5313C21.2812 51.4307 23.6318 53.7813 26.5313 53.7813Z" fill="#F9F9F9"/>
</svg>
