<svg width="35" height="35" viewBox="0 0 45 45" fill="none" xmlns="http://www.w3.org/2000/svg">
<path d="M7.91625 7.14L20.5106 19.7344L15.2081 25.0388L7.91437 17.745C6.50834 16.3385 5.71848 14.4312 5.71848 12.4425C5.71848 10.4538 6.51022 8.54646 7.91625 7.14ZM26.7525 22.7738L25.1512 24.375L38.4094 37.6331L35.7581 40.2844L22.5 27.0281L9.24187 40.2844L6.59062 37.6331L24.1012 20.1225C22.9988 17.3906 24.1388 13.4569 27.1388 10.4531C30.8006 6.79313 35.8463 5.9025 38.4094 8.46563C40.9725 11.0288 40.0819 16.0744 36.4219 19.7344C33.4181 22.7381 29.4844 23.8781 26.7525 22.7738Z" fill="#585858"/>
</svg>
