<svg width="20" height="19" viewBox="0 0 20 19" fill="none" xmlns="http://www.w3.org/2000/svg">
<path d="M10.0282 0.24392C9.88692 0.0885201 9.68732 0 9.47798 0C9.26864 0 9.06904 0.0885201 8.92778 0.24392L4.95166 4.61892C4.67383 4.92462 4.69494 5.39902 4.99882 5.67852C5.3027 5.95802 5.77426 5.93678 6.05209 5.63108L8.73246 2.6818V13.75C8.73246 14.1642 9.06625 14.5 9.47798 14.5C9.8897 14.5 10.2235 14.1642 10.2235 13.75V2.6818L12.9039 5.63108C13.1817 5.93678 13.6533 5.95802 13.9572 5.67852C14.261 5.39902 14.2821 4.92462 14.0043 4.61892L10.0282 0.24392Z" fill="currentColor"/>
<path d="M1.52571 12C1.52571 11.5858 1.19193 11.25 0.780188 11.25C0.368453 11.25 0.0346685 11.5858 0.0346685 12V12.0549C0.0346486 13.4225 0.0346287 14.5248 0.150492 15.3918C0.270789 16.2919 0.528133 17.0497 1.12646 17.6516C1.72478 18.2536 2.47812 18.5125 3.37286 18.6335C4.23465 18.75 5.33038 18.75 6.6898 18.75H12.7631C14.1225 18.75 15.2182 18.75 16.08 18.6335C16.9748 18.5125 17.728 18.2536 18.3264 17.6516C18.9247 17.0497 19.1821 16.2919 19.3024 15.3918C19.4182 14.5248 19.4182 13.4225 19.4182 12.0549V12C19.4182 11.5858 19.0844 11.25 18.6727 11.25C18.2609 11.25 17.9271 11.5858 17.9271 12C17.9271 13.4354 17.9256 14.4365 17.8247 15.1919C17.7265 15.9257 17.5472 16.3142 17.2721 16.591C16.9969 16.8678 16.6108 17.0482 15.8813 17.1469C15.1304 17.2484 14.1353 17.25 12.7085 17.25H6.74435C5.31751 17.25 4.32237 17.2484 3.57153 17.1469C2.84215 17.0482 2.45589 16.8678 2.18078 16.591C1.90567 16.3142 1.7263 15.9257 1.62824 15.1919C1.52729 14.4365 1.52571 13.4354 1.52571 12Z" fill="currentColor"/>
</svg>
