<svg width="20" height="20" viewBox="0 0 20 20" fill="none" xmlns="http://www.w3.org/2000/svg">
<g id="Frame">
<g id="SVGRepo_bgCarrier">
<path id="Vector" d="M9.99999 17.4018C12.1189 17.1499 13.6958 15.6752 15.0773 14.049C16.5381 12.3294 18.1795 10.4439 17.8002 8.21965C17.4036 5.8936 15.4485 4.10277 13.2397 3.27271C11.2409 2.52159 9.18255 3.38393 7.22964 4.24731C5.15331 5.16525 2.87778 6.06396 2.10098 8.19711C1.21957 10.6175 1.46611 13.513 3.14362 15.4678C4.77062 17.3637 7.51912 17.6967 9.99999 17.4018Z" fill="#FFDFA8"/>
</g>
<g id="SVGRepo_iconCarrier">
<path id="Vector_2" d="M14.5139 15.2083L15.5556 16.25M9.30557 11.3889C6.62085 11.3889 4.44446 13.5653 4.44446 16.25H9.30557M14.8611 13.8194C14.8611 14.7783 14.0838 15.5556 13.125 15.5556C12.1662 15.5556 11.3889 14.7783 11.3889 13.8194C11.3889 12.8606 12.1662 12.0833 13.125 12.0833C14.0838 12.0833 14.8611 12.8606 14.8611 13.8194ZM12.0833 6.52778C12.0833 8.0619 10.8397 9.30556 9.30557 9.30556C7.77144 9.30556 6.52779 8.0619 6.52779 6.52778C6.52779 4.99365 7.77144 3.75 9.30557 3.75C10.8397 3.75 12.0833 4.99365 12.0833 6.52778Z" stroke="black" stroke-width="2" stroke-linecap="round" stroke-linejoin="round"/>
</g>
</g>
</svg>
