<?xml version="1.0" encoding="UTF-8"?>
<svg id="Layer_1" data-name="Layer 1" xmlns="http://www.w3.org/2000/svg" viewBox="0 0 93.19 120.8">
  <path d="m21.39,66.6c-9.59-13.25-11.69-35.9-4.23-50.92,2.44-4.92,7.95-7.75,12.22-11.27,1.62-1.34,3.68-1.92,5.8-2.67-.94,2.94-2.15,5.7-3.53,8.65-.71,4.94-1.82,9.71-1.61,14.42.2,4.63,1.72,9.18,2.56,14.04-.86,1.81-1.8,3.27-2.34,4.91-2.18,6.54-4.17,13.17-6.4,19.69-.43,1.24-1.61,2.11-2.44,3.16h0Z" style="fill: #0c439a;"/>
  <path d="m11.22,34.83c.03,2.19.06,4.37-.09,7,.01,1.09.2,1.74.4,2.39.31,1.96.63,3.92.79,6.28.07.82.29,1.23.5,1.65.45,1.28.89,2.56,1.2,4.26-.17,1.45,0,2.57-.3,3.49-2.51,7.76-5.07,15.5-7.71,23.2-.24.71-1.17,1.09-1.78,1.63C-3.32,62.22-.73,41.36,11.76,21.93c.78-.1,1.13-.09,1.48-.08-.32,1.74-.64,3.49-1.22,5.56-.25.76-.25,1.2-.24,1.64-.02.55-.05,1.11-.35,2-.25,1.48-.23,2.64-.2,3.78h0Z" style="fill: #0c439a;"/>
  <path d="m31.81,10.2c1.21-2.76,2.42-5.53,3.57-8.56.86-.63,1.76-.98,3.44-1.64-1.17,2.51-2.01,4.19-2.75,5.92-4.29,10.11-3.93,26.27,5.58,37.52,5.8,6.86,12.84,10.99,20.07,14.96,6.93,3.8,14.03,7.23,20.68,11.63,5.46,3.61,8.5,9.87,10.27,17.1,1.29,5.27.09,9.33-2.98,12.99-.64.76-1.31,1.49-2.13,2.02,1.7-7.48-.08-13.87-3.6-20.09-2.68-3.03-5.27-5.84-7.98-8.84-2.74-2.04-5.36-3.88-7.94-5.99.7-1.99.4-2.81-1.22-3.75-7.58-4.37-15.49-8.24-22.43-13.78-9.71-7.75-14.65-19.04-13.19-33.47.2-2,.4-4.01.6-6.02h0Z" style="fill: rgba(227, 74, 148, .72);"/>
  <path d="m21.43,66.84c.79-1.29,1.97-2.16,2.4-3.4,2.23-6.52,4.22-13.14,6.4-19.69.55-1.64,1.48-3.1,2.47-4.69.89.99,1.49,2.07,2.21,3.03,2.8,3.77,5.64,7.5,8.43,11.52-2.33,7.27-4.55,14.3-6.96,21.24-.61,1.74-1.87,3.14-2.84,4.7-4.02-4.16-8.04-8.31-12.1-12.71h0Z" style="fill: #0e4f9f;"/>
  <path d="m33.64,79.77c.86-1.77,2.13-3.18,2.73-4.92,2.42-6.93,4.63-13.96,7.18-21.17,4.35,2.59,8.44,5.38,12.5,8.46-2.67,8.27-5.26,16.26-7.98,24.2-.27.81-1.25,1.26-1.9,1.89-4.14-2.75-8.29-5.5-12.54-8.47h0Z" style="fill: #1460a6;"/>
  <path d="m76.1,73.4c2.59,2.81,5.18,5.61,7.65,8.77-.54,1-1.1,1.57-1.35,2.3-2.31,6.83-4.62,13.65-6.79,20.53-.86,2.73-1.38,5.61-2.05,8.42-3.7,1.97-7.4,3.94-11.55,6.15,0-3.01,0-5.36.25-8.06,1.7-3.78,3.34-7.11,4.57-10.64,3.19-9.11,6.2-18.31,9.27-27.48Z" style="fill: #2498bd;"/>
  <path d="m75.99,73.2c-2.96,9.36-5.97,18.56-9.16,27.67-1.23,3.53-2.87,6.86-4.53,10.31-1.51-5.45-3.55-10.45-6.8-14.81.81-.86,1.8-1.32,2.07-2.11,2.96-8.96,5.82-17.97,8.92-26.97.65.05,1.09.12,1.51.18,2.62,1.84,5.25,3.69,7.99,5.73h0Z" style="fill: #1d84b5;"/>
  <path d="m4.27,84.97c.58-.8,1.5-1.18,1.74-1.89,2.64-7.7,5.2-15.43,7.71-23.2.3-.92.12-2.04.3-3.23,2.97,5.18,5.81,10.53,8.52,16.22-.45.93-.84,1.47-1.06,2.1-2.9,8.43-5.77,16.87-8.66,25.31-2.84-5.02-5.69-10.03-8.56-15.31h0Z" style="fill: #0e4f9f;"/>
  <path d="m66.27,67.32c-2.88,9-5.74,18.01-8.7,26.97-.26.79-1.27,1.24-2.16,1.88-3.16-2.47-6.08-4.99-9.11-7.71.54-.83,1.51-1.3,1.79-2.1,2.71-7.94,5.31-15.94,8.19-24.14,3.5,1.55,6.75,3.32,10,5.1h0Z" style="fill: #1972ad;"/>
  <path d="m12.9,100.48c2.82-8.64,5.69-17.09,8.59-25.52.22-.63.61-1.17,1.12-1.87,2.66,2.28,5.13,4.66,7.76,7.47-2.61,9.03-5.38,17.66-8.22,26.23-.24.72-1.07,1.16-1.63,1.73-2.52-2.62-5.04-5.23-7.62-8.05h0Z" style="fill: #1460a6;"/>
  <path d="m39.1,86.57c2.96,2.01,5.92,4.01,8.96,6.5-2.75,9.01-5.58,17.55-8.4,26.09-3.16-1.23-6.32-2.45-9.58-4.14,2.94-9.8,5.98-19.12,9.02-28.45h0Z" style="fill: #1d84b5;"/>
  <path d="m38.97,86.38c-2.9,9.52-5.95,18.84-9.02,28.45-3.09-1.77-6.14-3.81-9.3-6.08.45-.79,1.28-1.23,1.52-1.94,2.85-8.58,5.61-17.21,8.4-26.09,2.76,1.65,5.51,3.56,8.4,5.66Z" style="fill: #1972ad;"/>
  <path d="m39.85,119.31c2.63-8.7,5.45-17.23,8.32-26.04,2.4,2.23,4.76,4.74,7.17,7.73-1.97,6.88-3.99,13.28-6.01,19.67-3.09-.4-6.18-.8-9.48-1.35Z" style="fill: #2498bd;"/>
  <path d="m73.77,113.41c.46-2.79.97-5.67,1.84-8.4,2.17-6.89,4.48-13.7,6.79-20.53.25-.73.81-1.31,1.44-2.08,3.64,5.87,5.42,12.26,3.54,19.84-.02.3.04.34-.1.35-.24.21-.35.42-.47.63-4.27,3.39-8.55,6.77-13.04,10.19h0Z" style="fill: #2caac4;"/>
  <path d="m45.74,29.1c-2.08-4.27-2.76-8.7-.71-13.56,5.14,5.45,9.9,11.07,14.48,16.84-1.43.52-2.69.96-3.96,1.21-3.99.79-6.82-2.16-9.82-4.5h0Z" style="fill: #0c439a;"/>
  <path d="m49.54,120.8c1.81-6.52,3.83-12.91,5.89-19.58,3.99,4.48,5.27,10.3,4.61,16.76-.09.92-1.18,2.29-1.92,2.4-2.76.42-5.57.41-8.57.42h0Z" style="fill: #2caac4;"/>
  <path d="m59.69,32.22c-4.76-5.61-9.52-11.22-14.49-16.87.72-1.61,1.66-3.18,2.93-4.65,1.38.95,2.54,1.66,3.45,2.69,4.2,4.72,8.32,9.53,12.43,14.53-.32.76-.6,1.29-1.06,1.93-1.2.86-2.23,1.61-3.26,2.37h0Z" style="fill: #1460a6;"/>
  <path d="m64.05,27.69c-4.16-4.78-8.28-9.59-12.48-14.31-.91-1.03-2.07-1.74-3.26-2.76,1.71-1.1,3.55-2.02,5.66-2.68,4.1,4.62,7.93,8.95,11.8,13.57-.55,2.25-1.13,4.21-1.71,6.18h0Z" style="fill: #1d84b5;"/>
  <path d="m65.72,21.23c-3.83-4.34-7.66-8.68-11.54-13.24,5.07-.83,8.75,2.06,11.44,9.25.09,1.68.09,2.83.09,3.99Z" style="fill: #2caac4;"/>
  <path d="m59.51,32.39c1.2-.93,2.23-1.68,3.45-2.32.2.41.19.71.19,1-.76.77-1.51,1.54-2.65,2.36-.58.26-.78.46-.97.66,0,0-.11.11-.36.1-.44.15-.63.32-.81.48-5.24,1.97-9.31-.19-12.61-5.33,3,2.1,5.81,5.05,9.81,4.26,1.27-.25,2.52-.69,3.96-1.21h0Z" style="fill: #a62f73;"/>
  <path d="m63.35,31.01c-.2-.24-.19-.53-.2-1.05.25-.75.53-1.29.86-2.05.63-2.19,1.22-4.17,1.76-6.41-.04-1.43-.03-2.59-.05-4,1.84,4.88.88,9.4-2.36,13.51h0Z" style="fill: #e34a94;"/>
  <path d="m13.38,21.67c-.48.17-.84.16-1.45.13.4-1.06,1.07-2.09,1.74-3.12.17.12.35.24.52.35-.22.82-.45,1.64-.81,2.64Z" style="fill: #0e4f9f;"/>
  <path d="m11.33,34.6c-.13-.92-.15-2.06,0-3.3.16.97.12,2.02,0,3.3Z" style="fill: #0e4f9f;"/>
  <path d="m11.58,43.99c-.24-.42-.43-1.06-.48-1.83.27.45.4,1.03.48,1.83Z" style="fill: #0e4f9f;"/>
  <path d="m11.89,28.9c-.12-.3-.12-.74,0-1.23.13.33.12.71,0,1.23Z" style="fill: #0e4f9f;"/>
  <path d="m12.85,51.94c-.24-.21-.45-.63-.53-1.15.27.24.42.6.53,1.15Z" style="fill: #0e4f9f;"/>
  <path d="m59.73,34.08c0-.19.19-.4.58-.61,0,.19-.19.4-.58.61Z" style="fill: #e34a94;"/>
  <path d="m86.95,103.15c-.02-.14.09-.35.35-.59.08.19-.04.38-.35.59Z" style="fill: #e34a94;"/>
  <path d="m58.53,34.68c0-.18.19-.35.56-.51,0,.18-.19.35-.56.51Z" style="fill: #e34a94;"/>
  <path d="m66.49,67.31c-3.47-1.77-6.71-3.54-10.18-5.38-4.32-2.87-8.41-5.66-12.71-8.52-3.04-3.81-5.88-7.54-8.68-11.31-.72-.96-1.32-2.04-2.1-3.29-1.06-4.81-2.59-9.37-2.78-14-.2-4.71.91-9.49,1.61-14.42-.02,1.82-.22,3.83-.43,5.84-1.46,14.43,3.48,25.72,13.19,33.47,6.95,5.54,14.85,9.41,22.43,13.78,1.62.93,1.92,1.75,1.22,3.75-.48.21-.91.15-1.56.09Z" style="fill: #a62f73;"/>
</svg>