<svg width="75" height="75" viewBox="0 0 75 75" fill="none" xmlns="http://www.w3.org/2000/svg">
<g clip-path="url(#clip0_173_123)">
<path d="M38.0859 67.4238C54.8948 67.4238 68.521 53.7976 68.521 36.9888C68.521 20.1799 54.8948 6.55371 38.0859 6.55371C21.2771 6.55371 7.65088 20.1799 7.65088 36.9888C7.65088 53.7976 21.2771 67.4238 38.0859 67.4238Z" fill="#CDCCD2"/>
<path d="M38.0786 65.4668C53.8066 65.4668 66.5566 52.7168 66.5566 36.9888C66.5566 21.2608 53.8066 8.51074 38.0786 8.51074C22.3506 8.51074 9.60059 21.2608 9.60059 36.9888C9.60059 52.7168 22.3506 65.4668 38.0786 65.4668Z" fill="white"/>
<path d="M44.9575 26.7715V22.1704C44.9575 22.1704 32.7773 19.415 34.3359 33.9844H29.625V39.3589H34.3301L34.3389 53.3306H40.0122L39.9756 39.3589H44.7144L45.3779 33.9844H40.0093C40.0093 33.9844 38.3525 25.5864 44.4961 27.1333C44.551 27.1469 44.6082 27.1478 44.6635 27.1359C44.7187 27.1241 44.7706 27.0998 44.815 27.0649C44.8595 27.03 44.8955 26.9855 44.9201 26.9346C44.9448 26.8838 44.9576 26.828 44.9575 26.7715Z" fill="#4075BC"/>
</g>
<defs>
<clipPath id="clip0_173_123">
<rect width="75" height="75" fill="white"/>
</clipPath>
</defs>
</svg>
