<svg width="75" height="75" viewBox="0 0 75 75" fill="none" xmlns="http://www.w3.org/2000/svg">
<path d="M37.3535 67.9351C54.1623 67.9351 67.7886 54.3088 67.7886 37.5C67.7886 20.6912 54.1623 7.06494 37.3535 7.06494C20.5447 7.06494 6.91846 20.6912 6.91846 37.5C6.91846 54.3088 20.5447 67.9351 37.3535 67.9351Z" fill="#CDCCD2"/>
<path d="M37.3066 65.9839C53.0346 65.9839 65.7847 53.2338 65.7847 37.5059C65.7847 21.7779 53.0346 9.02783 37.3066 9.02783C21.5787 9.02783 8.82861 21.7779 8.82861 37.5059C8.82861 53.2338 21.5787 65.9839 37.3066 65.9839Z" fill="white"/>
<g opacity="0.79">
<path d="M45.6958 31.1777C46.4555 31.1777 47.0713 30.5619 47.0713 29.8022C47.0713 29.0426 46.4555 28.4268 45.6958 28.4268C44.9361 28.4268 44.3203 29.0426 44.3203 29.8022C44.3203 30.5619 44.9361 31.1777 45.6958 31.1777Z" fill="url(#paint0_linear_173_136)"/>
<path d="M45.9141 23.1445H29.4785C26.2954 23.1445 23.584 25.7725 23.584 28.957V45.3926C23.584 48.5757 26.2954 51.1245 29.4785 51.1245H45.9141C49.0986 51.1245 51.5625 48.5771 51.5625 45.3926V28.957C51.5625 25.7725 49.0986 23.1445 45.9141 23.1445ZM48.9258 44.5928C48.9333 45.1253 48.8339 45.6539 48.6336 46.1473C48.4334 46.6408 48.1362 47.089 47.7597 47.4657C47.3832 47.8423 46.935 48.1397 46.4416 48.3401C45.9483 48.5406 45.4197 48.6401 44.8872 48.6328H30.5068C28.2319 48.6328 26.3672 46.8662 26.3672 44.5928V30.2109C26.3714 29.1146 26.809 28.0644 27.5845 27.2895C28.36 26.5145 29.4105 26.0777 30.5068 26.0742H44.8857C47.168 26.0742 48.9258 27.9375 48.9258 30.2109V44.5913V44.5928Z" fill="url(#paint1_linear_173_136)"/>
<path d="M37.5732 29.0713C35.9668 29.0713 34.3963 29.5477 33.0606 30.4402C31.7248 31.3327 30.6838 32.6013 30.069 34.0855C29.4542 35.5697 29.2933 37.2029 29.6068 38.7785C29.9202 40.3541 30.6938 41.8014 31.8297 42.9374C32.9657 44.0733 34.413 44.8469 35.9886 45.1603C37.5642 45.4737 39.1974 45.3129 40.6816 44.6981C42.1658 44.0833 43.4344 43.0422 44.3269 41.7065C45.2194 40.3707 45.6958 38.8003 45.6958 37.1938C45.6958 35.0396 44.84 32.9736 43.3168 31.4503C41.7935 29.9271 39.7275 29.0713 37.5732 29.0713ZM37.5732 42.4805C36.5276 42.4805 35.5055 42.1704 34.6362 41.5895C33.7668 41.0086 33.0892 40.183 32.689 39.2169C32.2889 38.2509 32.1842 37.188 32.3882 36.1625C32.5922 35.137 33.0957 34.195 33.835 33.4556C34.5744 32.7163 35.5164 32.2128 36.5419 32.0088C37.5674 31.8048 38.6303 31.9095 39.5963 32.3096C40.5623 32.7098 41.388 33.3874 41.9689 34.2568C42.5498 35.1261 42.8599 36.1483 42.8599 37.1938C42.8595 38.5958 42.3024 39.9403 41.311 40.9316C40.3197 41.923 38.9752 42.4801 37.5732 42.4805Z" fill="url(#paint2_linear_173_136)"/>
</g>
<defs>
<linearGradient id="paint0_linear_173_136" x1="44.7231" y1="30.7749" x2="46.6685" y2="28.8296" gradientUnits="userSpaceOnUse">
<stop stop-color="#FBB03B"/>
<stop offset="0.19" stop-color="#EA6D48"/>
<stop offset="0.44" stop-color="#D4145A"/>
<stop offset="0.64" stop-color="#BB0B5B"/>
<stop offset="0.86" stop-color="#A6035D"/>
<stop offset="1" stop-color="#9E005D"/>
</linearGradient>
<linearGradient id="paint1_linear_173_136" x1="25.3374" y1="49.4517" x2="49.9336" y2="24.8555" gradientUnits="userSpaceOnUse">
<stop stop-color="#FBB03B"/>
<stop offset="0.19" stop-color="#EA6D48"/>
<stop offset="0.44" stop-color="#D4145A"/>
<stop offset="0.64" stop-color="#BB0B5B"/>
<stop offset="0.86" stop-color="#A6035D"/>
<stop offset="1" stop-color="#9E005D"/>
</linearGradient>
<linearGradient id="paint2_linear_173_136" x1="31.8296" y1="42.9375" x2="43.3169" y2="31.4502" gradientUnits="userSpaceOnUse">
<stop stop-color="#FBB03B"/>
<stop offset="0.19" stop-color="#EA6D48"/>
<stop offset="0.44" stop-color="#D4145A"/>
<stop offset="0.64" stop-color="#BB0B5B"/>
<stop offset="0.86" stop-color="#A6035D"/>
<stop offset="1" stop-color="#9E005D"/>
</linearGradient>
</defs>
</svg>
