<svg width="62" height="62" viewBox="0 0 62 62" fill="none" xmlns="http://www.w3.org/2000/svg">
<path d="M31.207 61.3491C48.0159 61.3491 61.6421 47.7229 61.6421 30.9141C61.6421 14.1052 48.0159 0.479004 31.207 0.479004C14.3982 0.479004 0.771973 14.1052 0.771973 30.9141C0.771973 47.7229 14.3982 61.3491 31.207 61.3491Z" fill="#CDCCD2"/>
<path d="M31.207 59.3848C46.935 59.3848 59.6851 46.6347 59.6851 30.9067C59.6851 15.1788 46.935 2.42871 31.207 2.42871C15.4791 2.42871 2.729 15.1788 2.729 30.9067C2.729 46.6347 15.4791 59.3848 31.207 59.3848Z" fill="white"/>
<path d="M18.7559 26.959H23.9883L24.1157 44.3906H18.7559V26.959Z" fill="#0078B9"/>
<path d="M32.7202 29.6308L32.6147 27.5449H27.6255L27.3984 44.5371L32.6719 44.2983V35.6293C32.6719 35.6293 32.3628 31.8911 35.2339 31.3813C38.105 30.8715 38.4082 33.6972 38.4082 33.6972L38.3848 38.559V44.4184L43.9512 44.2924V33.2036C43.9512 33.2036 44.8169 27.7119 38.8506 26.7509C38.8506 26.7509 34.6846 26.1342 32.7202 29.6308Z" fill="#0078B9"/>
<path d="M21.6343 24.8965C23.4068 24.8965 24.8437 23.4596 24.8437 21.687C24.8437 19.9145 23.4068 18.4775 21.6343 18.4775C19.8617 18.4775 18.4248 19.9145 18.4248 21.687C18.4248 23.4596 19.8617 24.8965 21.6343 24.8965Z" fill="#0078B9"/>
</svg>
