<svg width="75" height="75" viewBox="0 0 75 75" fill="none" xmlns="http://www.w3.org/2000/svg">
<path d="M37.5 67.4004C54.3088 67.4004 67.9351 53.7742 67.9351 36.9653C67.9351 20.1565 54.3088 6.53027 37.5 6.53027C20.6912 6.53027 7.06494 20.1565 7.06494 36.9653C7.06494 53.7742 20.6912 67.4004 37.5 67.4004Z" fill="#CDCCD2"/>
<path d="M37.5 65.4434C53.228 65.4434 65.978 52.6933 65.978 36.9653C65.978 21.2374 53.228 8.4873 37.5 8.4873C21.772 8.4873 9.02197 21.2374 9.02197 36.9653C9.02197 52.6933 21.772 65.4434 37.5 65.4434Z" fill="white"/>
<path d="M53.9312 27.1641C54.0249 27.6709 50.6953 30.4819 50.6953 30.4819C44.4272 63.063 22.3403 46.6787 22.3403 46.6787C27.665 47.439 31.9351 44.0215 31.9351 44.0215C26.3804 43.3784 25.8779 39.5698 25.8779 39.5698C26.9941 40.0562 28.8076 39.46 28.8076 39.46C22.9058 37.1719 23.6074 33.1714 23.6074 33.1714C24.6416 33.7647 26.5371 33.895 26.5371 33.895C21.7441 30.5405 24.5317 25.3316 24.5317 25.3316C28.9438 30.8906 35.5664 31.8413 37.4033 32.001C37.2879 31.5158 37.2304 31.0187 37.2319 30.52C37.2319 26.8858 40.2085 23.937 43.8809 23.937C44.8113 23.9351 45.7318 24.1279 46.5833 24.503C47.4347 24.8782 48.1982 25.4273 48.8247 26.1152L48.936 26.1826L53.0508 24.6284C52.8691 26.2163 50.3643 28.0562 50.2061 28.1734C50.3994 28.0943 53.8403 26.6704 53.9312 27.1641Z" fill="#00D0F6"/>
</svg>
