<svg width="75" height="75" viewBox="0 0 75 75" fill="none" xmlns="http://www.w3.org/2000/svg">
<path d="M37.207 68.4873C54.0159 68.4873 67.6421 54.8611 67.6421 38.0522C67.6421 21.2434 54.0159 7.61719 37.207 7.61719C20.3982 7.61719 6.77197 21.2434 6.77197 38.0522C6.77197 54.8611 20.3982 68.4873 37.207 68.4873Z" fill="#CDCCD2"/>
<path d="M37.207 66.5303C52.935 66.5303 65.6851 53.7802 65.6851 38.0522C65.6851 22.3243 52.935 9.57422 37.207 9.57422C21.4791 9.57422 8.729 22.3243 8.729 38.0522C8.729 53.7802 21.4791 66.5303 37.207 66.5303Z" fill="white"/>
<path d="M50.6323 26.9297H23.1006C22.6344 26.9297 22.1873 27.1149 21.8576 27.4445C21.528 27.7742 21.3428 28.2213 21.3428 28.6875V46.3403C21.3428 46.7992 21.525 47.2392 21.8495 47.5636C22.1739 47.888 22.6139 48.0703 23.0728 48.0703H50.6265C51.3354 48.0703 51.9653 47.5254 51.9653 46.8179V28.1982C51.9712 27.4907 51.3398 26.9297 50.6323 26.9297ZM32.1108 42.7603V32.5195L41.1372 37.2583L32.1108 42.7603Z" fill="#FF2730"/>
</svg>
